<svg width="218" height="42" viewBox="0 0 218 42" fill="none" xmlns="http://www.w3.org/2000/svg">
<path d="M24.6013 7.85147L12.3006 15.7029L24.6013 23.5544L12.3006 31.4059L0 23.489L12.3006 15.6375L0 7.85147L12.3006 0L24.6013 7.85147ZM12.2352 33.8922L24.5358 26.0407L36.8365 33.8922L24.5358 41.7437L12.2352 33.8922ZM24.6013 23.489L36.9019 15.6375L24.6013 7.85147L36.8365 0L49.1371 7.85147L36.8365 15.7029L49.1371 23.5544L36.8365 31.4059L24.6013 23.489Z" fill="#FEF9F3"/>
<path d="M64.207 5.19919H74.1522C80.4988 5.19919 85.7331 8.86321 85.7331 17.2381V19.0047C85.7331 27.445 80.826 31.2399 74.3485 31.2399H64.207V5.19919ZM69.7685 9.91008V26.4636H74.0214C77.62 26.4636 80.0408 24.1082 80.0408 18.8738V17.4998C80.0408 12.2655 77.4891 9.91008 73.8251 9.91008H69.7685ZM88.6774 10.1718H93.1266L93.8463 15.079C94.6969 11.7421 96.8561 9.9755 100.782 9.9755H102.156V15.6024H99.8658C95.3512 15.6024 94.2389 17.1727 94.2389 21.6219V31.3053H88.7429V10.1718H88.6774ZM103.268 21.1639V20.575C103.268 13.5087 107.783 9.64836 113.933 9.64836C120.214 9.64836 124.598 13.5087 124.598 20.575V21.1639C124.598 28.0993 120.345 31.8288 113.933 31.8288C107.128 31.7633 103.268 28.0993 103.268 21.1639ZM118.971 21.0984V20.575C118.971 16.6493 117.008 14.2938 113.868 14.2938C110.792 14.2938 108.764 16.453 108.764 20.575V21.0984C108.764 24.8933 110.727 27.0525 113.868 27.0525C117.008 26.987 118.971 24.8933 118.971 21.0984ZM127.477 10.1718H132.057L132.58 14.163C133.693 11.4804 136.048 9.64836 139.516 9.64836C144.881 9.64836 148.414 13.5087 148.414 20.6404V21.2293C148.414 28.1647 144.488 31.8288 139.516 31.8288C136.179 31.8288 133.889 30.3239 132.777 27.903V38.5679H127.411L127.477 10.1718ZM142.853 21.0984V20.6404C142.853 16.453 140.693 14.3592 137.815 14.3592C134.739 14.3592 132.711 16.7147 132.711 20.6404V21.033C132.711 24.7624 134.674 27.1179 137.749 27.1179C140.89 27.0525 142.853 25.0242 142.853 21.0984ZM156.527 27.3796L156.069 31.2399H151.358V3.10547H156.724V13.9012C157.901 11.1532 160.257 9.64836 163.594 9.64836C168.632 9.71379 172.361 13.1815 172.361 20.1824V20.8367C172.361 27.8376 168.828 31.8288 163.463 31.8288C159.93 31.7633 157.64 30.1276 156.527 27.3796ZM166.734 20.8367V20.3133C166.734 16.453 164.64 14.2938 161.696 14.2938C158.686 14.2938 156.593 16.7147 156.593 20.3787V20.8367C156.593 24.7624 158.621 27.0525 161.631 27.0525C164.837 27.0525 166.734 25.0242 166.734 20.8367ZM174.716 21.1639V20.575C174.716 13.5087 179.231 9.64836 185.381 9.64836C191.663 9.64836 196.046 13.5087 196.046 20.575V21.1639C196.046 28.0993 191.728 31.8288 185.381 31.8288C178.577 31.7633 174.716 28.0993 174.716 21.1639ZM190.485 21.0984V20.575C190.485 16.6493 188.522 14.2938 185.381 14.2938C182.306 14.2938 180.278 16.453 180.278 20.575V21.0984C180.278 24.8933 182.241 27.0525 185.381 27.0525C188.522 26.987 190.485 24.8933 190.485 21.0984ZM203.243 20.3133L195.85 10.1718H202.197L206.449 16.5184L210.768 10.1718H217.049L209.525 20.2478L217.442 31.2399H211.226L206.384 24.239L201.673 31.2399H195.196L203.243 20.3133Z" fill="#FEF9F3"/>
</svg>
