<svg width="20" height="17" viewBox="0 0 20 17" fill="none" xmlns="http://www.w3.org/2000/svg">
<path d="M19.515 2.14262C18.1085 1.228 16.4791 0.71457 14.8024 0.657652C13.1257 0.600733 11.4652 1.00249 10 1.81962C8.53459 1.00302 6.87421 0.601574 5.1976 0.658489C3.52099 0.715404 1.89166 1.22853 0.485 2.14262L0 2.43362V16.7656L1.515 15.8566C2.68087 15.08 4.04819 14.6609 5.44899 14.6508C6.84978 14.6407 8.22303 15.04 9.4 15.7996L10 16.2416L10.6 15.8026C11.7773 15.0422 13.1511 14.6422 14.5526 14.6518C15.9541 14.6614 17.3222 15.0801 18.489 15.8566L20 16.7656V2.43362L19.515 2.14262ZM5.559 12.6556C4.33675 12.6601 3.12736 12.9054 2 13.3776V3.58462C3.06746 2.98382 4.27055 2.66529 5.49546 2.65916C6.72037 2.65304 7.92658 2.95952 9 3.54962V13.3416C7.90847 12.8916 6.73968 12.6585 5.559 12.6556ZM18 13.3776C16.8941 12.9072 15.7056 12.6615 14.5038 12.655C13.302 12.6485 12.111 12.8812 11 13.3396V3.54962C12.0734 2.95952 13.2796 2.65304 14.5045 2.65916C15.7294 2.66529 16.9325 2.98382 18 3.58462V13.3776Z" fill="#9A9AB0"/>
</svg>
