<svg width="24" height="20" viewBox="0 0 24 20" fill="none" xmlns="http://www.w3.org/2000/svg">
<path d="M21.6133 2.59988C20.356 1.47597 18.6521 0.844727 16.8756 0.844727C15.099 0.844727 13.3951 1.47597 12.1378 2.59988C10.8778 1.4898 9.17897 0.870533 7.41139 0.876978C5.6438 0.883423 3.95066 1.51505 2.70078 2.63429C1.4509 3.75352 0.745534 5.26967 0.738337 6.8525C0.731139 8.43532 1.42269 9.95657 2.66235 11.0849L12.1378 19.5709L21.6133 11.0859C22.8687 9.95998 23.5739 8.43395 23.5739 6.84288C23.5739 5.25181 22.8687 3.72577 21.6133 2.59988ZM20.0342 9.67088L12.1378 16.7429L4.24141 9.67188C3.78786 9.27479 3.43396 8.79575 3.20325 8.26665C2.97254 7.73755 2.87031 7.17051 2.90338 6.60328C2.93644 6.03605 3.10403 5.48162 3.395 4.9769C3.68597 4.47218 4.09364 4.02874 4.59089 3.67609C5.08814 3.32344 5.66356 3.06966 6.27886 2.93165C6.89416 2.79364 7.53523 2.77455 8.15941 2.87566C8.78358 2.97677 9.37656 3.19577 9.89886 3.51807C10.4212 3.84036 10.8608 4.25858 11.1886 4.74488L12.1378 6.11688L13.087 4.74488C13.2647 4.48054 13.4761 4.23557 13.7169 4.01488C14.5683 3.28828 15.6994 2.88297 16.8756 2.88297C18.0517 2.88297 19.1828 3.28828 20.0342 4.01488C20.449 4.38631 20.7781 4.82728 21.0026 5.3126C21.2271 5.79791 21.3426 6.31807 21.3426 6.84338C21.3426 7.36868 21.2271 7.88884 21.0026 8.37416C20.7781 8.85947 20.449 9.30044 20.0342 9.67188V9.67088Z" fill="#9A9AB0"/>
</svg>
