<svg width="21" height="18" viewBox="0 0 21 18" fill="none" xmlns="http://www.w3.org/2000/svg">
<path d="M11.2512 4H4.55078V6H11.2512V4Z" fill="#92929D"/>
<path d="M11.2512 8H4.55078V10H11.2512V8Z" fill="#92929D"/>
<path d="M9.01771 12H4.55078V14H9.01771V12Z" fill="#92929D"/>
<path d="M15.7182 10V0H0.0839844V15C0.0839844 15.7956 0.43695 16.5587 1.06523 17.1213C1.69352 17.6839 2.54565 18 3.43418 18H16.835C17.7235 18 18.5756 17.6839 19.2039 17.1213C19.8322 16.5587 20.1852 15.7956 20.1852 15V10H15.7182ZM2.31745 15V2H13.4848V15C13.4885 15.3414 13.558 15.6797 13.6902 16H3.43418C3.138 16 2.85396 15.8946 2.64453 15.7071C2.4351 15.5196 2.31745 15.2652 2.31745 15ZM17.9517 15C17.9517 15.2652 17.834 15.5196 17.6246 15.7071C17.4152 15.8946 17.1311 16 16.835 16C16.5388 16 16.2547 15.8946 16.0453 15.7071C15.8359 15.5196 15.7182 15.2652 15.7182 15V12H17.9517V15Z" fill="#92929D"/>
</svg>
