<svg width="22" height="22" viewBox="0 0 22 22" fill="none" xmlns="http://www.w3.org/2000/svg">
<path d="M21.5 11C21.5 16.799 16.799 21.5 11 21.5C5.20101 21.5 0.5 16.799 0.5 11C0.5 5.20101 5.20101 0.5 11 0.5C16.799 0.5 21.5 5.20101 21.5 11Z" stroke="black"/>
<path fill-rule="evenodd" clip-rule="evenodd" d="M11.1453 12.7732L8.07184 14.5489V7.45279L11.1453 9.21552L11.1582 9.24134L14.2252 11.0041L11.1453 12.7732ZM11.7006 8.3051L11.6683 8.29218L7.83939 6.0904C7.75545 6.02583 7.64569 6 7.54238 6C7.2389 6 7 6.2389 7 6.52946V15.4722H7.00646C7.00646 15.5561 7.01937 15.6465 7.08394 15.724C7.22599 15.9888 7.55529 16.0792 7.80711 15.9242L11.6683 13.6901L15.536 11.4625C15.6199 11.4108 15.6845 11.3334 15.7361 11.2559C15.8782 11.0041 15.7942 10.6812 15.5489 10.5392L11.7006 8.3051Z" fill="black"/>
</svg>
