<svg width="16" height="14" viewBox="0 0 16 14" fill="none" xmlns="http://www.w3.org/2000/svg">
<path d="M11.7258 4.66699C12.8051 4.66699 13.68 3.88349 13.68 2.91699C13.68 1.95049 12.8051 1.16699 11.7258 1.16699C10.6464 1.16699 9.77148 1.95049 9.77148 2.91699C9.77148 3.88349 10.6464 4.66699 11.7258 4.66699Z" stroke="black" stroke-linecap="round" stroke-linejoin="round"/>
<path d="M3.90936 8.75C4.98868 8.75 5.86364 7.9665 5.86364 7C5.86364 6.0335 4.98868 5.25 3.90936 5.25C2.83004 5.25 1.95508 6.0335 1.95508 7C1.95508 7.9665 2.83004 8.75 3.90936 8.75Z" stroke="black" stroke-linecap="round" stroke-linejoin="round"/>
<path d="M11.7258 12.833C12.8051 12.833 13.68 12.0495 13.68 11.083C13.68 10.1165 12.8051 9.33301 11.7258 9.33301C10.6464 9.33301 9.77148 10.1165 9.77148 11.083C9.77148 12.0495 10.6464 12.833 11.7258 12.833Z" stroke="black" stroke-linecap="round" stroke-linejoin="round"/>
<path d="M5.5957 7.88086L10.0449 10.2025" stroke="black" stroke-linecap="round" stroke-linejoin="round"/>
<path d="M10.0384 3.79785L5.5957 6.11952" stroke="black" stroke-linecap="round" stroke-linejoin="round"/>
</svg>
