<svg viewbox="0 0 880 60"  xmlns="http://www.w3.org/2000/svg" version="1.1" xmlns:xlink="http://www.w3.org/1999/xlink" xmlns:svgjs="http://svgjs.com/svgjs" viewBox="0 0 891 60"><path id="SvgjsPath1014" d="M 0 30 L 0 30 A 2.25 2.25 0 0 0 4.5 30 A 2.25 2.25 0 0 1 9 30 L 9 44.931860902255636 A 2.25 2.25 0 0 0 13.5 44.931860902255636 L 13.5 17.47519841269841 A 2.25 2.25 0 0 1 18 17.47519841269841 L 18 39.76660401002506 A 2.25 2.25 0 0 0 22.5 39.76660401002506 L 22.5 23.555503341687555 A 2.25 2.25 0 0 1 27 23.555503341687555 L 27 49.812552213868 A 2.25 2.25 0 0 0 31.5 49.812552213868 L 31.5 8.348214285714288 A 2.25 2.25 0 0 1 36 8.348214285714288 L 36 40.886591478696744 A 2.25 2.25 0 0 0 40.5 40.886591478696744 L 40.5 17.079678362573098 A 2.25 2.25 0 0 1 45 17.079678362573098 L 45 44.281798245614034 A 2.25 2.25 0 0 0 49.5 44.281798245614034 L 49.5 15.992324561403509 A 2.25 2.25 0 0 1 54 15.992324561403509 L 54 45.01540309106099 A 2.25 2.25 0 0 0 58.5 45.01540309106099 L 58.5 12.688492063492063 A 2.25 2.25 0 0 1 63 12.688492063492063 L 63 45.70201545530493 A 2.25 2.25 0 0 0 67.5 45.70201545530493 L 67.5 16.327798663324977 A 2.25 2.25 0 0 1 72 16.327798663324977 L 72 44.97754803675856 A 2.25 2.25 0 0 0 76.5 44.97754803675856 L 76.5 17.84330618212197 A 2.25 2.25 0 0 1 81 17.84330618212197 L 81 49.63894110275689 A 2.25 2.25 0 0 0 85.5 49.63894110275689 L 85.5 10.5203111946533 A 2.25 2.25 0 0 1 90 10.5203111946533 L 90 51.01086048454469 A 2.25 2.25 0 0 0 94.5 51.01086048454469 L 94.5 13.792815371762739 A 2.25 2.25 0 0 1 99 13.792815371762739 L 99 48.82701545530493 A 2.25 2.25 0 0 0 103.5 48.82701545530493 L 103.5 13.219768170426065 A 2.25 2.25 0 0 1 108 13.219768170426065 L 108 51.60218253968254 A 2.25 2.25 0 0 0 112.5 51.60218253968254 L 112.5 15.201284461152882 A 2.25 2.25 0 0 1 117 15.201284461152882 L 117 52.6516812865497 A 2.25 2.25 0 0 0 121.5 52.6516812865497 L 121.5 12.383040935672515 A 2.25 2.25 0 0 1 126 12.383040935672515 L 126 50.944287802840435 A 2.25 2.25 0 0 0 130.5 50.944287802840435 L 130.5 9.630064745196325 A 2.25 2.25 0 0 1 135 9.630064745196325 L 135 48.714755639097746 A 2.25 2.25 0 0 0 139.5 48.714755639097746 L 139.5 12.11283416875522 A 2.25 2.25 0 0 1 144 12.11283416875522 L 144 41.56667710944026 A 2.25 2.25 0 0 0 148.5 41.56667710944026 L 148.5 15.211727234753551 A 2.25 2.25 0 0 1 153 15.211727234753551 L 153 45.60541979949875 A 2.25 2.25 0 0 0 157.5 45.60541979949875 L 157.5 11.496710526315788 A 2.25 2.25 0 0 1 162 11.496710526315788 L 162 47.15878237259816 A 2.25 2.25 0 0 0 166.5 47.15878237259816 L 166.5 12.902568922305765 A 2.25 2.25 0 0 1 171 12.902568922305765 L 171 50.68974519632414 A 2.25 2.25 0 0 0 175.5 50.68974519632414 L 175.5 7.350929406850462 A 2.25 2.25 0 0 1 180 7.350929406850462 L 180 49.454887218045116 A 2.25 2.25 0 0 0 184.5 49.454887218045116 L 184.5 13.061821219715956 A 2.25 2.25 0 0 1 189 13.061821219715956 L 189 46.686246867167924 A 2.25 2.25 0 0 0 193.5 46.686246867167924 L 193.5 13.072263993316625 A 2.25 2.25 0 0 1 198 13.072263993316625 L 198 47.29323308270676 A 2.25 2.25 0 0 0 202.5 47.29323308270676 L 202.5 10.44982247284879 A 2.25 2.25 0 0 1 207 10.44982247284879 L 207 50.6296992481203 A 2.25 2.25 0 0 0 211.5 50.6296992481203 L 211.5 11.708176691729324 A 2.25 2.25 0 0 1 216 11.708176691729324 L 216 49.40789473684211 A 2.25 2.25 0 0 0 220.5 49.40789473684211 L 220.5 10.0046992481203 A 2.25 2.25 0 0 1 225 10.0046992481203 L 225 50.202850877192986 A 2.25 2.25 0 0 0 229.5 50.202850877192986 L 229.5 10.106516290726816 A 2.25 2.25 0 0 1 234 10.106516290726816 L 234 49.0358709273183 A 2.25 2.25 0 0 0 238.5 49.0358709273183 L 238.5 12.268170426065161 A 2.25 2.25 0 0 1 243 12.268170426065161 L 243 51.745770676691734 A 2.25 2.25 0 0 0 247.5 51.745770676691734 L 247.5 11.922253550543026 A 2.25 2.25 0 0 1 252 11.922253550543026 L 252 42.18932748538012 A 2.25 2.25 0 0 0 256.5 42.18932748538012 L 256.5 14.672619047619047 A 2.25 2.25 0 0 1 261 14.672619047619047 L 261 47.410714285714285 A 2.25 2.25 0 0 0 265.5 47.410714285714285 L 265.5 10.42763157894737 A 2.25 2.25 0 0 1 270 10.42763157894737 L 270 46.50480367585631 A 2.25 2.25 0 0 0 274.5 46.50480367585631 L 274.5 11.368786549707604 A 2.25 2.25 0 0 1 279 11.368786549707604 L 279 51.72749582289056 A 2.25 2.25 0 0 0 283.5 51.72749582289056 L 283.5 14.138732247284878 A 2.25 2.25 0 0 1 288 14.138732247284878 L 288 49.29824561403509 A 2.25 2.25 0 0 0 292.5 49.29824561403509 L 292.5 13.795426065162907 A 2.25 2.25 0 0 1 297 13.795426065162907 L 297 47.13137009189641 A 2.25 2.25 0 0 0 301.5 47.13137009189641 L 301.5 13.208020050125313 A 2.25 2.25 0 0 1 306 13.208020050125313 L 306 48.50198412698413 A 2.25 2.25 0 0 0 310.5 48.50198412698413 L 310.5 15.090329991645781 A 2.25 2.25 0 0 1 315 15.090329991645781 L 315 42.399488304093566 A 2.25 2.25 0 0 0 319.5 42.399488304093566 L 319.5 11.291771094402673 A 2.25 2.25 0 0 1 324 11.291771094402673 L 324 45.41483918128655 A 2.25 2.25 0 0 0 328.5 45.41483918128655 L 328.5 11.535870927318296 A 2.25 2.25 0 0 1 333 11.535870927318296 L 333 44.698203842940686 A 2.25 2.25 0 0 0 337.5 44.698203842940686 L 337.5 15.701232247284878 A 2.25 2.25 0 0 1 342 15.701232247284878 L 342 44.75433375104428 A 2.25 2.25 0 0 0 346.5 44.75433375104428 L 346.5 13.241959064327485 A 2.25 2.25 0 0 1 351 13.241959064327485 L 351 47.81015037593985 A 2.25 2.25 0 0 0 355.5 47.81015037593985 L 355.5 13.70796783625731 A 2.25 2.25 0 0 1 360 13.70796783625731 L 360 49.73553675856307 A 2.25 2.25 0 0 0 364.5 49.73553675856307 L 364.5 16.09283625730994 A 2.25 2.25 0 0 1 369 16.09283625730994 L 369 53.8499895572264 A 2.25 2.25 0 0 0 373.5 53.8499895572264 L 373.5 9.093567251461987 A 2.25 2.25 0 0 1 378 9.093567251461987 L 378 53.52626357560568 A 2.25 2.25 0 0 0 382.5 53.52626357560568 L 382.5 5.989452798663326 A 2.25 2.25 0 0 1 387 5.989452798663326 L 387 45.27125104427736 A 2.25 2.25 0 0 0 391.5 45.27125104427736 L 391.5 14.714390142021722 A 2.25 2.25 0 0 1 396 14.714390142021722 L 396 43.29887218045113 A 2.25 2.25 0 0 0 400.5 43.29887218045113 L 400.5 13.427318295739347 A 2.25 2.25 0 0 1 405 13.427318295739347 L 405 43.058688387635755 A 2.25 2.25 0 0 0 409.5 43.058688387635755 L 409.5 14.02125104427736 A 2.25 2.25 0 0 1 414 14.02125104427736 L 414 55 A 2.25 2.25 0 0 0 418.5 55 L 418.5 6.515507518796991 A 2.25 2.25 0 0 1 423 6.515507518796991 L 423 48.89619883040936 A 2.25 2.25 0 0 0 427.5 48.89619883040936 L 427.5 9.400323725981622 A 2.25 2.25 0 0 1 432 9.400323725981622 L 432 48.0921052631579 A 2.25 2.25 0 0 0 436.5 48.0921052631579 L 436.5 11.172984544695069 A 2.25 2.25 0 0 1 441 11.172984544695069 L 441 46.318139097744364 A 2.25 2.25 0 0 0 445.5 46.318139097744364 L 445.5 11.462771512113616 A 2.25 2.25 0 0 1 450 11.462771512113616 L 450 50.798088972431074 A 2.25 2.25 0 0 0 454.5 50.798088972431074 L 454.5 11.020258980785297 A 2.25 2.25 0 0 1 459 11.020258980785297 L 459 41.80425020885547 A 2.25 2.25 0 0 0 463.5 41.80425020885547 L 463.5 15.420582706766918 A 2.25 2.25 0 0 1 468 15.420582706766918 L 468 48.02422723475355 A 2.25 2.25 0 0 0 472.5 48.02422723475355 L 472.5 15.199979114452798 A 2.25 2.25 0 0 1 477 15.199979114452798 L 477 46.186299081035926 A 2.25 2.25 0 0 0 481.5 46.186299081035926 L 481.5 11.350511695906434 A 2.25 2.25 0 0 1 486 11.350511695906434 L 486 43.97112573099415 A 2.25 2.25 0 0 0 490.5 43.97112573099415 L 490.5 15.582445697577278 A 2.25 2.25 0 0 1 495 15.582445697577278 L 495 51.71574770258981 A 2.25 2.25 0 0 0 499.5 51.71574770258981 L 499.5 16.104584377610692 A 2.25 2.25 0 0 1 504 16.104584377610692 L 504 48.110380116959064 A 2.25 2.25 0 0 0 508.5 48.110380116959064 L 508.5 10.609074770258982 A 2.25 2.25 0 0 1 513 10.609074770258982 L 513 47.9733187134503 A 2.25 2.25 0 0 0 517.5 47.9733187134503 L 517.5 12.34779657477026 A 2.25 2.25 0 0 1 522 12.34779657477026 L 522 46.52438387635756 A 2.25 2.25 0 0 0 526.5 46.52438387635756 L 526.5 9.44470551378446 A 2.25 2.25 0 0 1 531 9.44470551378446 L 531 42.366854636591476 A 2.25 2.25 0 0 0 535.5 42.366854636591476 L 535.5 16.33824143692565 A 2.25 2.25 0 0 1 540 16.33824143692565 L 540 52.49765037593985 A 2.25 2.25 0 0 0 544.5 52.49765037593985 L 544.5 14.343671679197996 A 2.25 2.25 0 0 1 549 14.343671679197996 L 549 46.546574770258985 A 2.25 2.25 0 0 0 553.5 46.546574770258985 L 553.5 15.752140768588136 A 2.25 2.25 0 0 1 558 15.752140768588136 L 558 48.473266499582294 A 2.25 2.25 0 0 0 562.5 48.473266499582294 L 562.5 12.597117794486216 A 2.25 2.25 0 0 1 567 12.597117794486216 L 567 46.65491854636592 A 2.25 2.25 0 0 0 571.5 46.65491854636592 L 571.5 14.330618212197159 A 2.25 2.25 0 0 1 576 14.330618212197159 L 576 53.55237050960735 A 2.25 2.25 0 0 0 580.5 53.55237050960735 L 580.5 14.31234335839599 A 2.25 2.25 0 0 1 585 14.31234335839599 L 585 51.324143692564746 A 2.25 2.25 0 0 0 589.5 51.324143692564746 L 589.5 12.316468253968253 A 2.25 2.25 0 0 1 594 12.316468253968253 L 594 51.4625104427736 A 2.25 2.25 0 0 0 598.5 51.4625104427736 L 598.5 9.050490810359232 A 2.25 2.25 0 0 1 603 9.050490810359232 L 603 48.34925856307436 A 2.25 2.25 0 0 0 607.5 48.34925856307436 L 607.5 11.95749791144528 A 2.25 2.25 0 0 1 612 11.95749791144528 L 612 51.14792188805347 A 2.25 2.25 0 0 0 616.5 51.14792188805347 L 616.5 9.828477443609025 A 2.25 2.25 0 0 1 621 9.828477443609025 L 621 48.84267961570593 A 2.25 2.25 0 0 0 625.5 48.84267961570593 L 625.5 14.069548872180452 A 2.25 2.25 0 0 1 630 14.069548872180452 L 630 47.61304302422724 A 2.25 2.25 0 0 0 634.5 47.61304302422724 L 634.5 13.312447786131997 A 2.25 2.25 0 0 1 639 13.312447786131997 L 639 44.8156850459482 A 2.25 2.25 0 0 0 643.5 44.8156850459482 L 643.5 17.33683166248956 A 2.25 2.25 0 0 1 648 17.33683166248956 L 648 52.21961152882206 A 2.25 2.25 0 0 0 652.5 52.21961152882206 L 652.5 14.410244360902256 A 2.25 2.25 0 0 1 657 14.410244360902256 L 657 49.521459899749374 A 2.25 2.25 0 0 0 661.5 49.521459899749374 L 661.5 10.199195906432749 A 2.25 2.25 0 0 1 666 10.199195906432749 L 666 49.075031328320804 A 2.25 2.25 0 0 0 670.5 49.075031328320804 L 670.5 13.080096073517126 A 2.25 2.25 0 0 1 675 13.080096073517126 L 675 48.54636591478697 A 2.25 2.25 0 0 0 679.5 48.54636591478697 L 679.5 13.50563909774436 A 2.25 2.25 0 0 1 684 13.50563909774436 L 684 51.42073934837093 A 2.25 2.25 0 0 0 688.5 51.42073934837093 L 688.5 11.449718045112782 A 2.25 2.25 0 0 1 693 11.449718045112782 L 693 48.21741854636592 A 2.25 2.25 0 0 0 697.5 48.21741854636592 L 697.5 14.129594820384295 A 2.25 2.25 0 0 1 702 14.129594820384295 L 702 51.632205513784456 A 2.25 2.25 0 0 0 706.5 51.632205513784456 L 706.5 13.30983709273183 A 2.25 2.25 0 0 1 711 13.30983709273183 L 711 47.884555137844615 A 2.25 2.25 0 0 0 715.5 47.884555137844615 L 715.5 12.695018796992482 A 2.25 2.25 0 0 1 720 12.695018796992482 L 720 45.23861737677527 A 2.25 2.25 0 0 0 724.5 45.23861737677527 L 724.5 11.167763157894736 A 2.25 2.25 0 0 1 729 11.167763157894736 L 729 46.65883458646617 A 2.25 2.25 0 0 0 733.5 46.65883458646617 L 733.5 14.232717209690895 A 2.25 2.25 0 0 1 738 14.232717209690895 L 738 50.79547827903091 A 2.25 2.25 0 0 0 742.5 50.79547827903091 L 742.5 15.28874269005848 A 2.25 2.25 0 0 1 747 15.28874269005848 L 747 51.25757101086049 A 2.25 2.25 0 0 0 751.5 51.25757101086049 L 751.5 13.568295739348368 A 2.25 2.25 0 0 1 756 13.568295739348368 L 756 50.89468462823726 A 2.25 2.25 0 0 0 760.5 50.89468462823726 L 760.5 12.879072681704262 A 2.25 2.25 0 0 1 765 12.879072681704262 L 765 45.76336675020885 A 2.25 2.25 0 0 0 769.5 45.76336675020885 L 769.5 16.31735588972431 A 2.25 2.25 0 0 1 774 16.31735588972431 L 774 50.903822055137844 A 2.25 2.25 0 0 0 778.5 50.903822055137844 L 778.5 13.74451754385965 A 2.25 2.25 0 0 1 783 13.74451754385965 L 783 47.851921470342525 A 2.25 2.25 0 0 0 787.5 47.851921470342525 L 787.5 14.889306599832915 A 2.25 2.25 0 0 1 792 14.889306599832915 L 792 47.4655388471178 A 2.25 2.25 0 0 0 796.5 47.4655388471178 L 796.5 15.650323725981622 A 2.25 2.25 0 0 1 801 15.650323725981622 L 801 46.59878863826232 A 2.25 2.25 0 0 0 805.5 46.59878863826232 L 805.5 14.029083124477863 A 2.25 2.25 0 0 1 810 14.029083124477863 L 810 46.91337719298245 A 2.25 2.25 0 0 0 814.5 46.91337719298245 L 814.5 12.449613617376777 A 2.25 2.25 0 0 1 819 12.449613617376777 L 819 48.89228279030911 A 2.25 2.25 0 0 0 823.5 48.89228279030911 L 823.5 10.549028822055138 A 2.25 2.25 0 0 1 828 10.549028822055138 L 828 49.61413951545531 A 2.25 2.25 0 0 0 832.5 49.61413951545531 L 832.5 13.482142857142858 A 2.25 2.25 0 0 1 837 13.482142857142858 L 837 50.873799081035926 A 2.25 2.25 0 0 0 841.5 50.873799081035926 L 841.5 14.244465329991645 A 2.25 2.25 0 0 1 846 14.244465329991645 L 846 52.67648287385129 A 2.25 2.25 0 0 0 850.5 52.67648287385129 L 850.5 12.906484962406015 A 2.25 2.25 0 0 1 855 12.906484962406015 L 855 41.90345655806182 A 2.25 2.25 0 0 0 859.5 41.90345655806182 L 859.5 19.067721386800336 A 2.25 2.25 0 0 1 864 19.067721386800336 L 864 51.80842731829574 A 2.25 2.25 0 0 0 868.5 51.80842731829574 L 868.5 11.98621553884712 A 2.25 2.25 0 0 1 873 11.98621553884712 L 873 44.63554720133668 A 2.25 2.25 0 0 0 877.5 44.63554720133668 L 877.5 15.510651629072681 A 2.25 2.25 0 0 1 882 15.510651629072681 L 882 30 A 2.25 2.25 0 0 0 886.5 30 A 2.25 2.25 0 0 1 891 30" fill="none" stroke="#555555" stroke-width="1.2"></path></svg>