<svg width="24" height="24" viewBox="0 0 24 24" fill="none" xmlns="http://www.w3.org/2000/svg">
<g clip-path="url(#clip0_202_3079)">
<path d="M5.9794 19.2314C7.53261 19.2314 9.08585 19.2314 10.6391 19.2314C10.7551 19.2472 10.873 19.2237 10.9742 19.1645C11.0755 19.1053 11.1542 19.0138 11.1979 18.9046C11.4445 18.3895 11.8097 17.941 12.2631 17.5963C12.7165 17.2516 13.2451 17.0206 13.8051 16.9225C14.365 16.8244 14.9402 16.862 15.4828 17.0322C16.0254 17.2025 16.5198 17.5004 16.925 17.9013C17.2092 18.2082 17.4467 18.5557 17.6301 18.9324C17.6674 19.0295 17.7352 19.1116 17.8232 19.1665C17.9111 19.2213 18.0144 19.2458 18.1175 19.2363C19.6431 19.2233 21.1687 19.2363 22.6943 19.2363C23.1931 19.2363 23.5911 19.3998 23.8413 19.8557C23.9366 20.0241 23.9896 20.2134 23.9958 20.4071C24.002 20.6009 23.9612 20.7932 23.8769 20.9675C23.7926 21.1418 23.6673 21.2928 23.5119 21.4074C23.3565 21.522 23.1757 21.5969 22.9851 21.6254C22.7978 21.6518 22.6088 21.6644 22.4197 21.663C20.9878 21.663 19.5565 21.663 18.1257 21.663C18.0285 21.6468 17.9286 21.6636 17.8419 21.7106C17.7552 21.7576 17.6864 21.8322 17.6463 21.9228C16.6 23.9393 14.4782 24.5766 12.5058 23.4638C11.9556 23.1628 11.5155 22.6927 11.2499 22.1222C11.0874 21.7578 10.8763 21.6516 10.4831 21.6548C7.49798 21.6744 4.51344 21.6744 1.52942 21.6548C1.20871 21.6609 0.890695 21.595 0.59847 21.462C0.369801 21.3388 0.189812 21.1407 0.0884524 20.9006C-0.0129071 20.6604 -0.0295746 20.3926 0.0411713 20.1416C0.101671 19.8808 0.249769 19.6489 0.460514 19.4852C0.671259 19.3215 0.931764 19.2359 1.19797 19.2429C2.7918 19.2314 4.38561 19.2429 5.97781 19.2429L5.9794 19.2314ZM14.4181 19.2429C14.1057 19.2419 13.8053 19.3633 13.5805 19.5815C13.3557 19.7996 13.2244 20.0973 13.2142 20.4113C13.2121 20.5704 13.2412 20.7285 13.3001 20.8763C13.359 21.024 13.4465 21.1586 13.5573 21.2723C13.6682 21.3859 13.8003 21.4763 13.9461 21.5383C14.0919 21.6004 14.2484 21.6327 14.4067 21.6336C14.7201 21.6306 15.0198 21.5042 15.2415 21.2815C15.4633 21.0587 15.5893 20.7575 15.5927 20.4423C15.5907 20.1279 15.4668 19.8267 15.2475 19.6028C15.0281 19.3788 14.7306 19.2497 14.4181 19.2429Z" fill="black"/>
<path d="M7.85783 2.33379C9.97805 2.33379 12.0983 2.33379 14.2185 2.33379C14.3477 2.35074 14.4788 2.32334 14.5906 2.25602C14.7023 2.1887 14.7881 2.08541 14.8343 1.96287C15.4841 0.665397 16.576 0.00195312 17.9911 0.00195312C19.4062 0.00195312 20.5223 0.685006 21.1966 1.96287C21.3477 2.25047 21.5053 2.35177 21.8139 2.33543C22.1932 2.31388 22.5736 2.32373 22.9512 2.36485C23.2493 2.39733 23.524 2.54247 23.7198 2.7709C23.9155 2.99933 24.0177 3.29401 24.0057 3.59533C23.9975 3.8961 23.8751 4.18227 23.6635 4.39503C23.452 4.60778 23.1674 4.73096 22.8684 4.7392C22.4769 4.75881 22.0837 4.76208 21.6938 4.7392C21.596 4.72784 21.4974 4.75074 21.4145 4.80403C21.3316 4.85732 21.2696 4.93772 21.2388 5.03169C20.3858 6.73606 18.7141 7.47141 16.9042 6.92072C16.4476 6.79208 16.0246 6.56452 15.6648 6.254C15.305 5.94347 15.017 5.55752 14.8212 5.12321C14.7783 4.99832 14.6941 4.89204 14.5826 4.82214C14.4711 4.75224 14.3391 4.72297 14.2087 4.7392C9.94228 4.75064 5.67428 4.73919 1.40783 4.75063C0.813195 4.75063 0.346907 4.56924 0.108077 3.9875C0.0413784 3.82386 0.0117086 3.64734 0.0212892 3.47074C0.0308698 3.29415 0.0794444 3.12192 0.16345 2.96655C0.247456 2.81118 0.364781 2.67656 0.506953 2.57249C0.649124 2.46841 0.812575 2.39749 0.985397 2.36485C1.18521 2.33269 1.38742 2.31847 1.58974 2.32237C3.67476 2.32781 5.76414 2.33162 7.85783 2.33379ZM18.0203 4.749C18.3336 4.74222 18.6319 4.61304 18.852 4.38884C19.0722 4.16465 19.197 3.86305 19.1998 3.54794C19.1964 3.23197 19.069 2.93015 18.8453 2.70825C18.6216 2.48635 18.3198 2.36234 18.0057 2.36322C17.6916 2.36231 17.3897 2.48573 17.1654 2.70679C16.941 2.92786 16.8122 3.22882 16.8067 3.54467C16.8066 3.70421 16.8381 3.86215 16.8993 4.00934C16.9605 4.15654 17.0502 4.29004 17.1631 4.40209C17.276 4.51414 17.41 4.60251 17.5571 4.66207C17.7043 4.72162 17.8617 4.75116 18.0203 4.749Z" fill="black"/>
<path d="M16.7903 13.2126C14.8309 13.2126 12.8731 13.2126 10.9154 13.2126C10.8115 13.2005 10.7066 13.2243 10.618 13.2801C10.5294 13.336 10.4624 13.4205 10.428 13.5199C9.75858 14.8484 8.65379 15.5674 7.17857 15.5608C5.70334 15.5543 4.62617 14.8631 3.96979 13.5362C3.93337 13.4298 3.86167 13.3392 3.76671 13.2797C3.67174 13.2202 3.55929 13.1954 3.44827 13.2094C2.71878 13.2306 1.98601 13.2339 1.25977 13.2094C0.257335 13.1783 -0.299913 12.2763 0.145253 11.4217C0.392207 10.9478 0.832467 10.7942 1.33125 10.7877C2.04774 10.7877 2.76264 10.7762 3.47913 10.7877C3.58293 10.803 3.68881 10.7822 3.77924 10.7287C3.86967 10.6752 3.93923 10.5922 3.9763 10.4935C4.62618 9.14864 5.73586 8.43945 7.20459 8.43945C8.67331 8.43945 9.77158 9.17151 10.4312 10.5049C10.5514 10.75 10.696 10.786 10.93 10.786C14.8065 10.786 18.6825 10.786 22.558 10.786C23.1526 10.786 23.6546 10.9494 23.8999 11.5573C23.9646 11.7109 23.9958 11.8766 23.9914 12.0433C23.987 12.21 23.9471 12.3739 23.8745 12.5238C23.8018 12.6737 23.698 12.8061 23.5701 12.9123C23.4422 13.0184 23.2932 13.0958 23.1331 13.1391C22.9239 13.1922 22.7086 13.2169 22.4929 13.2126C20.5953 13.2159 18.6944 13.2159 16.7903 13.2126ZM8.37757 11.9952C8.38037 11.8389 8.35218 11.6835 8.29467 11.5382C8.23716 11.3929 8.15152 11.2606 8.04264 11.149C7.93375 11.0373 7.80383 10.9486 7.6605 10.888C7.51717 10.8273 7.36333 10.796 7.20784 10.7958C6.89442 10.799 6.5943 10.9239 6.37026 11.1444C6.14623 11.3648 6.01554 11.6638 6.0055 11.9789C6.00549 12.3008 6.13211 12.6096 6.35765 12.838C6.58319 13.0664 6.88939 13.1958 7.20942 13.1979C7.36512 13.1978 7.51919 13.1663 7.66264 13.1055C7.8061 13.0446 7.93606 12.9556 8.04486 12.8436C8.15366 12.7315 8.23912 12.5988 8.29626 12.4531C8.35339 12.3075 8.38103 12.1518 8.37757 11.9952Z" fill="black"/>
</g>
<defs>
<clipPath id="clip0_202_3079">
<rect width="24" height="24" fill="white"/>
</clipPath>
</defs>
</svg>
