<svg width="65" height="60" viewBox="0 0 65 60" fill="none" xmlns="http://www.w3.org/2000/svg">
<g clip-path="url(#clip0_167_3226)">
<path d="M32.424 59.9928C23.5002 59.9928 14.5785 59.9928 5.65888 59.9928C3.41383 59.9928 1.61716 59.1814 0.58556 57.1467C0.220793 56.4031 0.0299873 55.5868 0.0274421 54.7593C-0.00391337 38.3024 -0.0101837 21.8466 0.0086296 5.39178C0.0086296 2.22419 2.15648 0.0458923 5.35788 0.0178054C10.3904 -0.0290062 15.4261 -0.000919268 20.4587 0.0178054C21.2954 -0.007576 22.1264 0.162723 22.885 0.515022C23.6436 0.86732 24.3086 1.39179 24.8265 2.04631C26.2281 3.75337 27.7551 5.36057 29.1379 7.08324C30.3921 8.64362 31.9599 9.26778 33.9134 9.26778C42.3919 9.2553 50.8704 9.2553 59.3489 9.26778C62.0142 9.26778 64.0523 10.6815 64.7421 13.0408C64.9108 13.6389 64.9942 14.2577 64.9898 14.8789C65.0044 28.0403 65.0044 41.1995 64.9898 54.3567C64.9898 57.8426 62.8357 59.9991 59.3458 60.0022C50.3698 60.0022 41.3958 59.9991 32.424 59.9928ZM51.5916 18.4865C53.5983 18.4865 55.602 18.4865 57.6087 18.4865C59.1765 18.4865 60.1924 17.5971 60.2018 16.2115C60.2112 14.8259 59.2298 13.9146 57.6432 13.9084C53.5837 13.8959 49.5221 13.8959 45.4585 13.9084C45.0181 13.9023 44.581 13.984 44.1729 14.1487C43.708 14.3648 43.3315 14.733 43.1062 15.1918C42.8808 15.6506 42.8202 16.1724 42.9343 16.6703C43.0466 17.1814 43.3311 17.639 43.7406 17.9671C44.1501 18.2951 44.66 18.474 45.1856 18.4741C47.321 18.4865 49.4563 18.4709 51.5916 18.4709V18.4865Z" fill="black"/>
</g>
<defs>
<clipPath id="clip0_167_3226">
<rect width="65" height="60" fill="white"/>
</clipPath>
</defs>
</svg>
