<svg class="logolg" viewBox="0 0 201 38" fill="none" xmlns="http://www.w3.org/2000/svg">
<path d="M6.12628 0.150391H0V16.9703H14.0562V12.9226H6.12628V0.150391Z" fill="black"/>
<path d="M23.0045 0.150391H16.9155V16.9726H23.0045V0.150391Z" fill="black"/>
<path d="M35.88 13.3978L31.9897 0.150391H25.7646L31.2941 16.9703H40.455L45.9471 0.150391H39.7572L35.88 13.3978Z" fill="black"/>
<path d="M54.7462 0.150391H48.6572V16.9726H54.7462V0.150391Z" fill="black"/>
<path d="M64.1173 4.49067L70.169 16.9703H79.9508V0.150391H73.8355L73.8158 12.1725L67.9703 0.150391H58.0151V16.9703H64.1173V4.49067Z" fill="black"/>
<path d="M91.8435 17.0707C94.2557 17.0707 96.1281 16.5846 97.4608 15.6122L97.7482 16.9695H101.825V7.62464H92.64V11.0652H95.5233C95.4223 11.7955 95.1371 12.3037 94.6653 12.5853C94.1936 12.8668 93.3883 13.0252 92.3043 13.0252C91.1531 13.0252 90.233 12.7202 89.544 12.1101C88.855 11.5 88.5112 10.3392 88.5127 8.62776C88.5127 6.60831 88.8565 5.33901 89.544 4.81984C90.2315 4.30068 91.1472 4.0411 92.2912 4.0411C93.3605 4.0411 94.1811 4.19289 94.7531 4.49647C95.325 4.80005 95.6395 5.37494 95.6966 6.22114H101.825C101.825 4.56833 101.025 3.11937 99.4246 1.87426C97.8243 0.629154 95.4384 0.00439967 92.267 0C88.7563 0 86.2227 0.733279 84.6662 2.19984C83.1098 3.6664 82.333 5.76357 82.3359 8.49137C82.3359 11.181 83.0842 13.2826 84.5806 14.7961C86.0771 16.3096 88.4981 17.0678 91.8435 17.0707Z" fill="black"/>
<path d="M26.831 25.6958C27.5346 25.1855 28.4255 24.9303 29.5036 24.9303C30.5466 24.9303 31.3752 25.1334 31.9896 25.5396C32.604 25.9459 32.9119 26.7224 32.9134 27.8693H39.1384C39.1384 26.0595 38.4407 24.4397 37.0451 23.0098C35.6496 21.5799 33.1577 20.8657 29.5694 20.8672C26.0147 20.8672 23.4548 21.6173 21.8896 23.1176C20.3244 24.6179 19.544 26.7048 19.5484 29.3784C19.5484 32.0592 20.3273 34.1564 21.8852 35.6699C23.4431 37.1834 26.0074 37.9394 29.5782 37.9379C33.1577 37.9379 35.6445 37.2113 37.0385 35.7579C38.4326 34.3045 39.1304 32.6913 39.1318 30.9183H32.9134C32.9134 32.0402 32.6047 32.813 31.9874 33.2369C31.3701 33.6607 30.5422 33.8741 29.5036 33.877C28.5553 33.9128 27.6207 33.6422 26.8376 33.1049C26.1296 32.5901 25.7756 31.3487 25.7756 29.3806C25.7756 27.4344 26.1274 26.2062 26.831 25.6958Z" fill="black"/>
<path d="M58.6845 22.9856C57.0754 21.5733 54.4986 20.8672 50.9542 20.8672C47.4098 20.8672 44.8338 21.5733 43.2261 22.9856C41.617 24.3979 40.8125 26.5494 40.8125 29.44C40.8125 32.3305 41.617 34.4761 43.2261 35.8767C44.8352 37.2919 47.412 37.9995 50.9564 37.9995C54.5008 37.9995 57.0776 37.2919 58.6867 35.8767C60.2958 34.46 61.1003 32.3144 61.1003 29.44C61.1003 26.5655 60.295 24.4141 58.6845 22.9856ZM53.8923 33.1533C53.1609 33.6768 52.1815 33.9386 50.9542 33.9386C49.7269 33.9386 48.7512 33.6768 48.0271 33.1533C47.2957 32.6297 46.93 31.3919 46.93 29.44C46.93 27.4469 47.2957 26.1967 48.0271 25.6892C48.7585 25.1818 49.7342 24.9288 50.9542 24.9303C52.1874 24.9303 53.1667 25.1833 53.8923 25.6892C54.6178 26.1952 54.9836 27.4454 54.9894 29.44C54.9836 31.3919 54.6178 32.6297 53.8923 33.1533Z" fill="black"/>
<path d="M80.0739 30.4505C80.9837 29.4782 81.4394 28.1737 81.4409 26.537C81.4423 24.9003 81.013 23.5672 80.1529 22.5377C79.2971 21.5228 77.8167 21.0161 75.7117 21.0176H63.0708V37.8375H69.2146V31.898H71.4637L75.1807 37.8375H81.9412L77.6558 31.689C78.7061 31.4587 79.5121 31.0459 80.0739 30.4505ZM69.2102 25.0785H73.5724C74.2028 25.0785 74.6483 25.2068 74.9087 25.4635C75.0494 25.6223 75.1568 25.8081 75.2243 26.0096C75.2918 26.211 75.318 26.4241 75.3014 26.636C75.3014 27.1757 75.1705 27.5702 74.9087 27.8195C74.6468 28.0688 74.2014 28.1935 73.5724 28.1935H69.2102V25.0785Z" fill="black"/>
<path d="M95.4841 21.0176H83.6353V37.8375H89.7615V33.8008H95.4907C97.935 33.8008 99.607 33.2142 100.507 32.041C101.406 30.8677 101.855 29.3278 101.854 27.4213C101.854 25.5148 101.403 23.9749 100.5 22.8016C99.5975 21.6284 97.9255 21.0337 95.4841 21.0176ZM95.2866 29.2714C94.9619 29.5837 94.4616 29.7399 93.7814 29.7399H89.755V25.0785H93.7814C94.4616 25.0785 94.9619 25.2347 95.2866 25.5514C95.6113 25.8682 95.7693 26.4864 95.7693 27.4081C95.7693 28.3298 95.6092 28.9612 95.2866 29.2714Z" fill="black"/>
<path d="M121.198 22.9856C119.589 21.5733 117.012 20.8672 113.468 20.8672C109.923 20.8672 107.349 21.5733 105.744 22.9856C104.135 24.3979 103.331 26.5494 103.331 29.44C103.331 32.3305 104.135 34.4761 105.744 35.8767C107.353 37.2919 109.93 37.9995 113.474 37.9995C117.019 37.9995 119.596 37.2919 121.205 35.8767C122.814 34.46 123.618 32.3144 123.618 29.44C123.618 26.5655 122.812 24.4141 121.198 22.9856ZM116.408 33.1533C115.677 33.6768 114.697 33.9386 113.468 33.9386C112.239 33.9386 111.263 33.6768 110.541 33.1533C109.809 32.6297 109.444 31.3919 109.444 29.44C109.444 27.4469 109.809 26.1967 110.541 25.6892C111.272 25.1818 112.248 24.9288 113.468 24.9303C114.704 24.9303 115.684 25.1833 116.408 25.6892C117.132 26.1952 117.498 27.4454 117.505 29.44C117.498 31.3919 117.132 32.6297 116.408 33.1533Z" fill="black"/>
<path d="M142.588 30.4505C143.499 29.4782 143.955 28.1737 143.955 26.537C143.955 24.9003 143.526 23.5672 142.669 22.5377C141.81 21.5228 140.329 21.0161 138.225 21.0176H125.587V37.8375H131.731V31.898H133.98L137.694 37.8375H144.457L140.167 31.6912C141.221 31.4595 142.027 31.0459 142.588 30.4505ZM131.726 25.0785H136.088C136.719 25.0785 137.164 25.2068 137.425 25.4635C137.685 25.7201 137.815 26.1109 137.815 26.636C137.815 27.1757 137.685 27.5702 137.425 27.8195C137.164 28.0688 136.719 28.1935 136.088 28.1935H131.726V25.0785Z" fill="black"/>
<path d="M151.485 21.0176L145.372 37.8375H151.722L152.841 34.3354H159.18L160.297 37.8375H166.636L160.534 21.0176H151.485ZM154.046 30.4505L155.986 24.3701H156.06L157.998 30.4505H154.046Z" fill="black"/>
<path d="M165.083 25.0807H171.073V37.8397H177.199V25.0807H183.165V21.0176H165.083V25.0807Z" fill="black"/>
<path d="M201 25.0807V21.0176H185.302V37.8397H201V33.7766H191.442V31.3106H200.179V27.4851H191.442V25.0807H201Z" fill="black"/>
</svg>
