<svg class="logoxs"  viewBox="0 0 44 31" fill="none" xmlns="http://www.w3.org/2000/svg">
<path d="M8.27112 0H0V22.7087H18.9774V17.2439H8.27112V0Z" fill="black"/>
<path d="M27.3837 14.4166C28.3337 13.7276 29.5364 13.3831 30.992 13.3831C32.4001 13.3831 33.5189 13.6573 34.3484 14.2058C35.1779 14.7542 35.5936 15.8026 35.5956 17.351H44C44 14.9077 43.058 12.7208 41.1738 10.7903C39.2897 8.85975 35.9254 7.89548 31.0808 7.89746C26.2817 7.89746 22.8255 8.91024 20.7123 10.9358C18.5991 12.9613 17.5455 15.7789 17.5514 19.3884C17.5514 23.0079 18.6031 25.8393 20.7064 27.8827C22.8097 29.926 26.2718 30.9467 31.0927 30.9448C35.9254 30.9448 39.2828 29.9637 41.165 28.0015C43.0471 26.0393 43.9891 23.8613 43.9911 21.4674H35.5956C35.5956 22.9822 35.1789 24.0256 34.3454 24.5978C33.512 25.1701 32.3942 25.4582 30.992 25.4621C29.7117 25.5105 28.4499 25.145 27.3926 24.4196C26.4367 23.7247 25.9588 22.0486 25.9588 19.3914C25.9588 16.7639 26.4338 15.1057 27.3837 14.4166Z" fill="black"/>
</svg>
