<svg width="12" height="16" viewBox="0 0 12 16" fill="none" xmlns="http://www.w3.org/2000/svg">
<g clip-path="url(#clip0_167_1737)">
<path d="M0 5.81598C0.0546519 3.96371 0.906528 2.23116 2.70223 1.03736C4.47452 -0.141898 6.40121 -0.330888 8.35827 0.548214C10.4836 1.50514 11.6547 3.19493 11.9549 5.46537C12.1162 6.672 11.8343 7.81278 11.2366 8.85094C10.7508 9.69584 10.1627 10.4834 9.60225 11.2847C8.57862 12.747 7.5463 14.2039 6.50531 15.6554C6.3997 15.8028 6.25161 15.9154 6.08024 15.9787C5.8278 16.0582 5.6465 15.8932 5.5077 15.6922C4.91 14.8465 4.30796 14.0033 3.70939 13.1584C2.81327 11.8936 1.90067 10.6399 1.02711 9.36061C0.356539 8.37804 0.00520494 7.28172 0 5.81598ZM8.49447 6.02464C8.48968 5.5352 8.33807 5.0581 8.05874 4.65344C7.77941 4.24877 7.38485 3.93464 6.92476 3.7506C6.46467 3.56657 5.95962 3.52086 5.47323 3.61924C4.98684 3.71761 4.54086 3.95567 4.19145 4.30344C3.84205 4.6512 3.60485 5.09311 3.50973 5.57351C3.41462 6.05391 3.46583 6.55131 3.65693 7.00307C3.84804 7.45483 4.17048 7.84075 4.58364 8.1122C4.99681 8.38366 5.48222 8.52852 5.97875 8.52854C6.64875 8.52402 7.28965 8.25801 7.76114 7.78873C8.23264 7.31945 8.49632 6.68514 8.49447 6.02464Z" fill="black"/>
</g>
<defs>
<clipPath id="clip0_167_1737">
<rect width="12" height="16" fill="white"/>
</clipPath>
</defs>
</svg>
