<svg width="17" height="16" viewBox="0 0 17 16" fill="none" xmlns="http://www.w3.org/2000/svg">
<path fill-rule="evenodd" clip-rule="evenodd" d="M11.5234 11.5137L11.5137 11.5234C10.9631 12.0594 10.3053 12.5028 9.58904 12.8097C8.8874 13.0923 8.1078 13.2678 7.30384 13.2678C6.49501 13.2678 5.72029 13.0923 5.02353 12.8097C4.29753 12.5028 3.63974 12.0594 3.08428 11.5137C2.53856 10.9631 2.09029 10.3053 1.79307 9.57442L1.77845 9.54519C1.49098 8.85817 1.33993 8.09806 1.33993 7.29897C1.33993 6.4804 1.50072 5.71054 1.79307 5.01378C2.09029 4.29265 2.52882 3.63487 3.08428 3.07453C4.16597 1.99772 5.65695 1.33019 7.30384 1.33019C8.1078 1.33019 8.8874 1.49585 9.58904 1.77845C10.3102 2.08542 10.9679 2.52882 11.5234 3.07453L11.5526 3.11351C12.0935 3.65436 12.5223 4.29265 12.8146 5.01378L12.8292 5.04302C13.1118 5.73978 13.2629 6.49989 13.2629 7.29897C13.2629 8.09806 13.1118 8.86791 12.8146 9.57442C12.5223 10.3053 12.074 10.9631 11.5234 11.5137ZM15.8112 14.8562L12.9169 11.9619C13.3798 11.4016 13.7648 10.773 14.0522 10.086C14.403 9.22847 14.6028 8.27834 14.6028 7.29897C14.6028 6.32935 14.4128 5.39383 14.0668 4.54115L14.0522 4.50217C13.6917 3.61538 13.1508 2.83578 12.5028 2.16825L12.4687 2.12927C11.7963 1.46662 10.9874 0.911153 10.1055 0.540845H10.0958C9.23822 0.180282 8.28321 0 7.30384 0C5.28664 0 3.45946 0.808831 2.13902 2.12927C1.47149 2.7968 0.925771 3.60563 0.560335 4.51191C0.194899 5.36947 0 6.30986 0 7.29897C0 8.2686 0.194899 9.20411 0.540845 10.047L0.560335 10.086C0.925771 10.9826 1.47149 11.7914 2.13902 12.4589H2.14876C2.81142 13.1313 3.62025 13.6673 4.51679 14.0474C5.37434 14.3982 6.3196 14.5979 7.30384 14.5979C8.29296 14.5979 9.23822 14.3982 10.1055 14.0474C10.7779 13.7599 11.4065 13.3798 11.9668 12.9121L14.8659 15.8063C15.129 16.0646 15.5529 16.0646 15.8112 15.8063C16.0792 15.5383 16.0792 15.1193 15.8112 14.8562Z" fill="#1E2022"/>
</svg>
