<svg width="19" height="24" viewBox="0 0 19 24" fill="none" xmlns="http://www.w3.org/2000/svg">
<path d="M6.85202 7.74726V8.80065C6.75449 8.80065 6.65695 8.81425 6.55942 8.81425H2.88677C2.28699 8.81425 2.08072 9.02152 2.08072 9.62637C2.08072 13.4435 2.08072 17.2606 2.08072 21.0778C2.08072 21.7053 2.25785 21.882 2.88229 21.882H16.1424C16.7478 21.882 16.9271 21.6996 16.9271 21.0891C16.9271 17.2538 16.9271 13.4182 16.9271 9.5822C16.9271 8.97621 16.7478 8.80065 16.1334 8.80065H11.6491V7.74047C11.7074 7.74047 11.7691 7.72461 11.8307 7.72461C13.3072 7.72461 14.7836 7.72461 16.2601 7.72461C17.1054 7.72461 17.7175 8.17768 17.9271 8.96149C17.9745 9.16287 17.9956 9.36963 17.9899 9.57654C17.9899 13.4276 17.9798 17.2855 18 21.14C18.0067 22.3531 17.1413 22.9954 16.1592 22.9942C11.7205 22.9942 7.28176 22.9942 2.84305 22.9942C1.94619 22.9942 1.28251 22.5412 1.07063 21.7664C1.02012 21.5563 0.997506 21.3403 1.00336 21.1242C0.998879 17.2784 0.998879 13.4333 1.00336 9.58899C1.00336 8.42687 1.68273 7.74613 2.8352 7.74386C4.16928 7.745 5.49552 7.74726 6.85202 7.74726Z" fill="black" stroke="black" stroke-width="0.5"/>
<path d="M5.60059 3.92004L9.50865 1L13.41 3.91665C13.1992 4.20321 12.9997 4.47165 12.7755 4.77521L10.0614 2.76358V16.7612H8.98288V2.74319L6.24408 4.77521L5.60059 3.92004Z" fill="black" stroke="black" stroke-width="0.5"/>
</svg>
