<svg width="31" height="31" viewBox="0 0 31 31" fill="none" xmlns="http://www.w3.org/2000/svg">
<circle cx="15.5" cy="15.5" r="15" fill="black" stroke="black"/>
<path d="M20.19 13.332C20.19 12.114 19.812 11.246 19.07 10.756C18.328 10.252 17.32 10 16.074 10C13.372 10 12 10.896 12 12.394C12 12.856 12.112 13.318 12.322 13.584L15.234 13.444C15.08 13.276 14.982 12.926 14.982 12.59C14.982 12.156 15.262 11.764 15.892 11.764C16.578 11.764 16.928 12.226 16.928 13.458C16.928 14.62 16.69 15.012 16.13 15.012C15.738 15.012 15.43 14.76 15.332 14.354H12.938V17.56H15.276V16.16C15.542 16.482 16.144 16.762 16.886 16.762C17.726 16.762 18.482 16.524 19.168 16.062C19.854 15.586 20.19 14.676 20.19 13.332ZM15.598 18.47H12.756V20.962H15.598V18.47Z" fill="#FEF9F3"/>
</svg>
