<svg viewBox="0 0 20 20" fill="none" xmlns="http://www.w3.org/2000/svg">
<g>
<path d="M12.392 9.99562C12.392 13.1144 12.392 16.2332 12.392 19.352C12.392 19.6055 12.3633 19.8378 12.1022 19.9553C12.0221 19.9934 11.9327 20.0076 11.8448 19.9962C11.7568 19.9848 11.674 19.9483 11.6062 19.891C11.535 19.8335 11.4678 19.7711 11.4051 19.7043C9.32873 17.6287 7.25319 15.5522 5.17849 13.4749C5.13462 13.4265 5.08059 13.3883 5.02026 13.3632C4.95993 13.3381 4.8948 13.3266 4.82951 13.3296C3.87892 13.3363 2.92832 13.3414 1.97772 13.3296C1.175 13.3203 0.541265 12.9916 0.191445 12.2464C0.0734622 11.9843 0.0107573 11.7007 0.00724074 11.4134C-0.00627887 10.3792 -0.00205492 9.3442 0.0300542 8.31005C0.0537135 7.54457 0.828557 6.74699 1.59917 6.70475C2.36979 6.6625 3.16069 6.67349 3.94145 6.66335C4.24395 6.66335 4.54729 6.65659 4.8498 6.66335C4.91166 6.66696 4.97353 6.65635 5.03066 6.63233C5.08778 6.60831 5.13864 6.57152 5.17934 6.52478C7.26643 4.42944 9.35605 2.3372 11.4482 0.248054C11.5542 0.138542 11.6866 0.0582208 11.8327 0.014862C12.0955 -0.0527297 12.3211 0.117095 12.3709 0.384927C12.3863 0.482146 12.3928 0.580555 12.3904 0.678949C12.392 3.78535 12.3926 6.89091 12.392 9.99562Z" fill="black"/>
<path d="M19.9994 10.2254C19.9749 11.7014 19.3952 13.2036 18.3939 14.5403C17.9934 15.0768 17.494 15.5415 17.0276 16.0264C16.954 16.1086 16.8543 16.1628 16.7453 16.18C16.6364 16.1973 16.5248 16.1764 16.4294 16.1211C16.3409 16.0751 16.271 16.0002 16.2311 15.9089C16.1913 15.8175 16.184 15.7153 16.2105 15.6192C16.2522 15.4943 16.3263 15.3826 16.4252 15.2956C17.1706 14.6486 17.7889 13.8684 18.2486 12.995C19.1308 11.3136 19.3091 9.58242 18.6094 7.79124C18.157 6.61896 17.4252 5.57485 16.4775 4.74962C16.3742 4.66592 16.2881 4.5629 16.2241 4.4463C16.1845 4.35523 16.1768 4.25345 16.2022 4.15747C16.2277 4.06148 16.2848 3.97689 16.3643 3.9174C16.4406 3.84819 16.5389 3.80833 16.6419 3.80493C16.7448 3.80152 16.8456 3.83479 16.9262 3.89881C17.2111 4.12787 17.481 4.37509 17.734 4.63893C18.6066 5.56423 19.2626 6.67183 19.6547 7.88165C19.8811 8.57108 19.9994 9.28248 19.9994 10.2254Z" fill="black"/>
<path d="M17.1403 9.89052C17.1448 10.4568 17.0376 11.0183 16.8249 11.5431C16.6122 12.0679 16.2981 12.5457 15.9007 12.949C15.6375 13.2123 15.3599 13.4608 15.0692 13.6934C14.9873 13.7612 14.886 13.8016 14.7799 13.8087C14.6737 13.8158 14.568 13.7894 14.4777 13.7331C14.3087 13.6123 14.2133 13.4408 14.2826 13.2405C14.3328 13.1121 14.4172 12.9999 14.5267 12.9161C14.9737 12.5672 15.3793 12.1802 15.681 11.6978C16.4575 10.4558 16.3358 8.97719 15.3472 7.8577C15.0844 7.55945 14.7684 7.30683 14.471 7.039C14.3197 6.90297 14.2369 6.72723 14.318 6.55149C14.3858 6.40363 14.5063 6.28642 14.656 6.22283C14.7292 6.2086 14.8045 6.20966 14.8772 6.22594C14.9499 6.24223 15.0184 6.27339 15.0785 6.31746C16.1009 7.07786 16.8462 8.03429 17.0777 9.3236C17.1183 9.54496 17.1293 9.77055 17.1403 9.89052Z" fill="black"/>
</g>
</svg>
