<svg xmlns="http://www.w3.org/2000/svg" width="20.95" height="14.642" viewBox="0 0 20.95 14.642">
  <path id="youtube" d="M20.52,7.685A2.626,2.626,0,0,0,18.7,5.862c-1.633-.438-8.205-.438-8.205-.438s-6.556-.009-8.205.438A2.626,2.626,0,0,0,.463,7.685a27.286,27.286,0,0,0-.456,5.069A27.286,27.286,0,0,0,.463,17.8a2.626,2.626,0,0,0,1.823,1.823c1.631.438,8.205.438,8.205.438s6.555,0,8.205-.438A2.626,2.626,0,0,0,20.52,17.8a27.286,27.286,0,0,0,.437-5.05,27.286,27.286,0,0,0-.437-5.069ZM8.394,15.89V9.609l5.47,3.145Z" transform="translate(-0.007 -5.424)" fill="#fff"/>
</svg>
