<?xml version="1.0" encoding="utf-8"?>
<!-- Generator: Adobe Illustrator 26.2.1, SVG Export Plug-In . SVG Version: 6.00 Build 0)  -->
<svg version="1.1" id="a" xmlns="http://www.w3.org/2000/svg" xmlns:xlink="http://www.w3.org/1999/xlink" x="0px" y="0px"
	 viewBox="0 0 136.1 155.7" style="enable-background:new 0 0 136.1 155.7;" xml:space="preserve">
<style type="text/css">
	.st0{fill:#FFFFFF;}
</style>
<g>
	<path d="M112.7,40.5c-4.8,0-9,2.6-11.4,6.4V28.8c0-7.4-6-13.4-13.4-13.4c-4.8,0-9,2.6-11.4,6.4v-8.4C76.5,6,70.4,0,63,0
		S49.6,6,49.6,13.4v8.4c-2.4-3.8-6.6-6.4-11.4-6.4c-7.4,0-13.4,6-13.4,13.4v32c-2.4-3.8-6.6-6.4-11.4-6.4C6,54.4,0,60.4,0,67.8v47.5
		c0,3.6,1.4,6.9,3.9,9.5l19.7,19.7c7.2,7.2,16.8,11.2,27,11.2h37.2c21.1,0,38.2-17.1,38.2-38.2V53.9
		C126.1,46.5,120.1,40.5,112.7,40.5L112.7,40.5z"/>
	<path d="M122.7,40.5c-4.8,0-9,2.6-11.4,6.4V28.8c0-7.4-6-13.4-13.4-13.4c-4.8,0-9,2.6-11.4,6.4v-8.4C86.5,6,80.4,0,73,0
		S59.6,6,59.6,13.4v8.4c-2.4-3.8-6.6-6.4-11.4-6.4c-7.4,0-13.4,6-13.4,13.4v32c-2.4-3.8-6.6-6.4-11.4-6.4c-7.4,0-13.4,6-13.4,13.4
		v47.5c0,3.6,1.4,6.9,3.9,9.5l19.7,19.7c7.2,7.2,16.8,11.2,27,11.2h37.2c21.1,0,38.2-17.1,38.2-38.2V53.9
		C136.1,46.5,130.1,40.5,122.7,40.5L122.7,40.5z M134.1,117.5c0,20-16.2,36.2-36.2,36.2H60.6c-9.7,0-18.8-3.8-25.6-10.6l-19.7-19.7
		c-2.1-2.1-3.3-5-3.3-8.1V67.9c0-6.3,5.1-11.4,11.4-11.4s11.4,5.1,11.4,11.4v37.2h2V28.8c0-6.3,5.1-11.4,11.4-11.4
		s11.4,5.1,11.4,11.4v26.6h2v-42C61.7,7.1,66.8,2,73.1,2s11.4,5.1,11.4,11.4v42h2V28.8c0-6.3,5.1-11.4,11.4-11.4s11.4,5.1,11.4,11.4
		v26.6h2v-1.5c0-6.3,5.1-11.4,11.4-11.4s11.4,5.1,11.4,11.4L134.1,117.5L134.1,117.5z"/>
	<path class="st0" d="M134.1,117.5c0,20-16.3,36.2-36.2,36.2H60.6c-9.7,0-18.8-3.8-25.6-10.6l-19.7-19.7c-2.1-2.1-3.3-5-3.3-8.1
		V67.9c0-6.3,5.1-11.4,11.4-11.4s11.4,5.1,11.4,11.4v37.2h2V28.8c0-6.3,5.1-11.4,11.4-11.4s11.4,5.1,11.4,11.4v26.6h2v-42
		C61.7,7.1,66.8,2,73.1,2s11.4,5.1,11.4,11.4v42h2V28.8c0-6.3,5.1-11.4,11.4-11.4s11.4,5.1,11.4,11.4v26.6h2v-1.5
		c0-6.3,5.1-11.4,11.4-11.4s11.4,5.1,11.4,11.4L134.1,117.5L134.1,117.5z"/>
</g>
</svg>
