<?xml version="1.0" encoding="UTF-8"?><svg id="a" xmlns="http://www.w3.org/2000/svg" viewBox="0 0 136.07 175.7"><defs><style>.b{fill:#fff;}</style></defs><path d="M112.67,40.49c-4.82,0-9.04,2.57-11.41,6.4V28.81c0-7.39-6.01-13.41-13.41-13.41-4.82,0-9.04,2.57-11.41,6.4V13.41c0-7.39-6.01-13.41-13.41-13.41s-13.41,6.01-13.41,13.41v8.39c-2.36-3.83-6.59-6.4-11.41-6.4-7.39,0-13.41,6.01-13.41,13.41v52.03c-2.36-3.83-6.59-6.4-11.41-6.4-7.39,0-13.41,6.01-13.41,13.41v47.5c0,3.58,1.39,6.94,3.92,9.47l19.68,19.68c7.22,7.22,16.81,11.19,27.02,11.19h37.23c21.08,0,38.22-17.14,38.22-38.22V53.9c0-7.39-6.01-13.41-13.41-13.41Z"/><path d="M122.67,40.49c-4.82,0-9.04,2.57-11.41,6.4V28.81c0-7.39-6.01-13.41-13.41-13.41-4.82,0-9.04,2.57-11.41,6.4V13.41c0-7.39-6.01-13.41-13.41-13.41s-13.41,6.01-13.41,13.41v8.39c-2.36-3.83-6.59-6.4-11.41-6.4-7.39,0-13.41,6.01-13.41,13.41v52.03c-2.36-3.83-6.59-6.4-11.41-6.4-7.39,0-13.41,6.01-13.41,13.41v47.5c0,3.58,1.39,6.94,3.92,9.47l19.68,19.68c7.22,7.22,16.81,11.19,27.02,11.19h37.23c21.08,0,38.22-17.14,38.22-38.22V53.9c0-7.39-6.01-13.41-13.41-13.41Zm11.41,96.99c0,19.97-16.25,36.22-36.22,36.22H60.62c-9.67,0-18.77-3.77-25.61-10.61l-19.68-19.68c-2.15-2.15-3.34-5.02-3.34-8.06v-47.5c0-6.29,5.12-11.41,11.41-11.41s11.41,5.12,11.41,11.41v37.22h2V28.81c0-6.29,5.12-11.41,11.41-11.41s11.41,5.12,11.41,11.41v46.63h2V13.41c0-6.29,5.12-11.41,11.41-11.41s11.41,5.12,11.41,11.41v62.04h2V28.81c0-6.29,5.12-11.41,11.41-11.41s11.41,5.12,11.41,11.41v46.63h2v-21.55c0-6.29,5.12-11.41,11.41-11.41s11.41,5.12,11.41,11.41v83.58Z"/><path class="b" d="M134.07,137.48c0,19.97-16.25,36.22-36.22,36.22H60.62c-9.67,0-18.77-3.77-25.61-10.61l-19.68-19.68c-2.15-2.15-3.34-5.02-3.34-8.06v-47.5c0-6.29,5.12-11.41,11.41-11.41s11.41,5.12,11.41,11.41v37.22h2V28.81c0-6.29,5.12-11.41,11.41-11.41s11.41,5.12,11.41,11.41v46.63h2V13.41c0-6.29,5.12-11.41,11.41-11.41s11.41,5.12,11.41,11.41v62.04h2V28.81c0-6.29,5.12-11.41,11.41-11.41s11.41,5.12,11.41,11.41v46.63h2v-21.55c0-6.29,5.12-11.41,11.41-11.41s11.41,5.12,11.41,11.41v83.58Z"/></svg>