<?xml version="1.0" encoding="UTF-8"?><svg id="a" xmlns="http://www.w3.org/2000/svg" viewBox="0 0 158.74 175.7"><defs><style>.b{fill:#fff;}</style></defs><path d="M135.33,49.63c-5.6,0-10.4,3.46-12.41,8.34-2-4.89-6.81-8.34-12.41-8.34s-10.4,3.46-12.41,8.34c-2-4.89-6.81-8.34-12.41-8.34-4.82,0-9.04,2.57-11.41,6.4V13.41c0-7.39-6.01-13.41-13.41-13.41s-13.41,6.01-13.41,13.41l-.05,92.05c0,3.8-2.19,7.07-5.7,8.53-3.52,1.45-7.37,.69-10.06-2l-8.77-8.77c-2.53-2.53-5.9-3.93-9.48-3.93s-6.95,1.39-9.48,3.93-3.93,5.9-3.93,9.48,1.39,6.95,3.93,9.48l8.77,8.77,33.57,33.57c7.22,7.22,16.82,11.2,27.03,11.2h37.22c21.08,0,38.22-17.15,38.22-38.22V63.04c0-7.39-6.01-13.41-13.41-13.41Z"/><path d="M145.33,49.63c-5.6,0-10.4,3.46-12.41,8.34-2-4.89-6.81-8.34-12.41-8.34s-10.4,3.46-12.41,8.34c-2-4.89-6.81-8.34-12.41-8.34-4.82,0-9.04,2.57-11.41,6.4V13.41c0-7.39-6.01-13.41-13.41-13.41s-13.41,6.01-13.41,13.41l-.05,92.05c0,3.8-2.19,7.07-5.7,8.53-3.52,1.45-7.37,.69-10.06-2l-8.77-8.77c-2.53-2.53-5.9-3.93-9.48-3.93s-6.95,1.39-9.48,3.93-3.93,5.9-3.93,9.48,1.39,6.95,3.93,9.48l8.77,8.77,33.57,33.57c7.22,7.22,16.82,11.2,27.03,11.2h37.22c21.08,0,38.22-17.15,38.22-38.22V63.04c0-7.39-6.01-13.41-13.41-13.41Zm11.41,87.85c0,19.97-16.25,36.22-36.22,36.22h-37.22c-9.67,0-18.77-3.77-25.61-10.61l-33.57-33.57-8.77-8.77c-2.15-2.15-3.34-5.02-3.34-8.07s1.19-5.91,3.34-8.07c2.15-2.15,5.02-3.34,8.07-3.34s5.91,1.19,8.07,3.34l8.77,8.77c2.18,2.18,4.98,3.32,7.87,3.32,1.46,0,2.93-.29,4.37-.88,4.28-1.77,6.93-5.75,6.94-10.37l.05-92.05c0-6.29,5.12-11.41,11.41-11.41s11.41,5.12,11.41,11.41v62.04h2v-12.41c0-6.29,5.12-11.41,11.41-11.41s11.41,5.12,11.41,11.41v12.41h2v-12.41c0-6.29,5.12-11.41,11.41-11.41s11.41,5.12,11.41,11.41v12.41h2v-12.41c0-6.29,5.12-11.41,11.41-11.41s11.41,5.12,11.41,11.41v74.44Z"/><path class="b" d="M156.74,137.48c0,19.97-16.25,36.22-36.22,36.22h-37.22c-9.67,0-18.77-3.77-25.61-10.61l-33.57-33.57-8.77-8.77c-2.15-2.15-3.34-5.02-3.34-8.07s1.19-5.91,3.34-8.07c2.15-2.15,5.02-3.34,8.07-3.34s5.91,1.19,8.07,3.34l8.77,8.77c2.18,2.18,4.98,3.32,7.87,3.32,1.46,0,2.93-.29,4.37-.88,4.28-1.77,6.93-5.75,6.94-10.37l.05-92.05c0-6.29,5.12-11.41,11.41-11.41s11.41,5.12,11.41,11.41v62.04h2v-12.41c0-6.29,5.12-11.41,11.41-11.41s11.41,5.12,11.41,11.41v12.41h2v-12.41c0-6.29,5.12-11.41,11.41-11.41s11.41,5.12,11.41,11.41v12.41h2v-12.41c0-6.29,5.12-11.41,11.41-11.41s11.41,5.12,11.41,11.41v74.44Z"/></svg>