<svg id="a" xmlns="http://www.w3.org/2000/svg" viewBox="0 0 136.03 175.74"><defs><style>.b{fill:#fff;}</style></defs><path d="M112.62,49.63c-5.6,0-10.4,3.46-12.41,8.34-2-4.89-6.81-8.34-12.41-8.34s-10.4,3.46-12.41,8.34c-2-4.89-6.81-8.34-12.41-8.34-4.82,0-9.04,2.57-11.41,6.4V13.41c0-7.39-6.01-13.41-13.41-13.41s-13.41,6.01-13.41,13.41l-.04,71.81L3.92,106.02c-2.53,2.53-3.92,5.9-3.92,9.48v19.89c0,3.58,1.39,6.94,3.92,9.48l19.68,19.68c7.22,7.22,16.82,11.19,27.02,11.19h37.23v-.04c21.06-.02,38.18-17.16,38.18-38.22V63.04c0-7.39-6.01-13.41-13.41-13.41Z"/><path d="M122.62,49.63c-5.6,0-10.4,3.46-12.41,8.34-2-4.89-6.81-8.34-12.41-8.34s-10.4,3.46-12.41,8.34c-2-4.89-6.81-8.34-12.41-8.34-4.82,0-9.04,2.57-11.41,6.4V13.41c0-7.39-6.01-13.41-13.41-13.41s-13.41,6.01-13.41,13.41l-.04,71.81-20.81,20.81c-2.53,2.53-3.92,5.9-3.92,9.48v19.89c0,3.58,1.39,6.94,3.92,9.48l19.68,19.68c7.22,7.22,16.82,11.19,27.02,11.19h37.23v-.04c21.06-.02,38.18-17.16,38.18-38.22V63.04c0-7.39-6.01-13.41-13.41-13.41Zm11.41,87.85c0,19.97-16.25,36.22-36.22,36.22v.04H60.62c-9.67,0-18.77-3.77-25.61-10.61l-19.68-19.68c-2.15-2.15-3.34-5.02-3.34-8.06v-19.89c0-3.04,1.19-5.91,3.34-8.06l19.4-19.4v27.66h1.99l.05-102.29c0-6.29,5.12-11.41,11.41-11.41s11.41,5.12,11.41,11.41v62.04h2v-12.41c0-6.29,5.12-11.41,11.41-11.41s11.41,5.12,11.41,11.41v12.41h2v-12.41c0-6.29,5.12-11.41,11.41-11.41s11.41,5.12,11.41,11.41v12.41h2v-12.41c0-6.29,5.12-11.41,11.41-11.41s11.41,5.12,11.41,11.41v74.44Z"/><path class="b" d="M134.03,137.48c0,19.97-16.25,36.22-36.22,36.22v.04H60.62c-9.67,0-18.77-3.77-25.61-10.61l-19.68-19.68c-2.15-2.15-3.34-5.02-3.34-8.06v-19.89c0-3.04,1.19-5.91,3.34-8.06l19.4-19.4v27.66h1.99l.05-102.29c0-6.29,5.12-11.41,11.41-11.41s11.41,5.12,11.41,11.41v62.04h2v-12.41c0-6.29,5.12-11.41,11.41-11.41s11.41,5.12,11.41,11.41v12.41h2v-12.41c0-6.29,5.12-11.41,11.41-11.41s11.41,5.12,11.41,11.41v12.41h2v-12.41c0-6.29,5.12-11.41,11.41-11.41s11.41,5.12,11.41,11.41v74.44Z"/></svg>