<svg width="22" height="23" viewBox="0 0 22 23" fill="none" xmlns="http://www.w3.org/2000/svg">
<path d="M16.6157 4.2373C16.3635 4.2373 16.1171 4.31207 15.9074 4.45215C15.6978 4.59223 15.5344 4.79134 15.4379 5.02429C15.3414 5.25724 15.3161 5.51357 15.3653 5.76086C15.4145 6.00816 15.5359 6.23531 15.7142 6.4136C15.8925 6.59189 16.1196 6.7133 16.3669 6.76249C16.6142 6.81168 16.8706 6.78644 17.1035 6.68995C17.3365 6.59346 17.5356 6.43006 17.6756 6.22042C17.8157 6.01077 17.8905 5.76429 17.8905 5.51215C17.8905 5.34473 17.8575 5.17896 17.7935 5.02429C17.7294 4.86962 17.6355 4.72907 17.5171 4.61069C17.3987 4.49231 17.2582 4.39841 17.1035 4.33434C16.9489 4.27028 16.7831 4.2373 16.6157 4.2373V4.2373Z" fill="#FEF9F3"/>
<path d="M10.9544 5.90332C9.89495 5.90212 8.85891 6.21519 7.97739 6.80294C7.09587 7.39068 6.40848 8.22668 6.0022 9.20517C5.59591 10.1837 5.48898 11.2607 5.69494 12.3C5.9009 13.3393 6.41048 14.2941 7.15923 15.0437C7.90797 15.7933 8.86223 16.304 9.90128 16.5111C10.9403 16.7182 12.0175 16.6125 12.9964 16.2074C13.9754 15.8022 14.8122 15.1158 15.4009 14.2349C15.9897 13.3541 16.3039 12.3184 16.3039 11.2589C16.3023 9.84006 15.7384 8.47971 14.7357 7.47587C13.733 6.47203 12.3733 5.90655 10.9544 5.90332V5.90332ZM10.9544 14.6869C10.2764 14.6869 9.61365 14.4859 9.04991 14.1092C8.48617 13.7325 8.04679 13.1971 7.78733 12.5708C7.52787 11.9444 7.45997 11.2551 7.59225 10.5901C7.72452 9.92514 8.05102 9.31432 8.53044 8.83489C9.00986 8.35547 9.6207 8.02898 10.2857 7.89671C10.9507 7.76444 11.6399 7.83233 12.2663 8.09179C12.8927 8.35125 13.4281 8.79063 13.8048 9.35437C14.1814 9.91811 14.3825 10.5809 14.3825 11.2589C14.3729 12.1623 14.0076 13.0255 13.366 13.6614C12.7243 14.2974 11.8579 14.6549 10.9544 14.6565V14.6869Z" fill="#FEF9F3"/>
<path d="M15.2005 22.0918H6.52669C4.79619 22.0901 3.13704 21.402 1.91339 20.1783C0.689743 18.9547 0.00161502 17.2955 0 15.565V6.88512C0.00161502 5.15462 0.689743 3.49546 1.91339 2.27181C3.13704 1.04816 4.79619 0.360013 6.52669 0.358398H15.2005C16.931 0.360013 18.5902 1.04816 19.8138 2.27181C21.0375 3.49546 21.7256 5.15462 21.7273 6.88512V15.565C21.7256 17.2955 21.0375 18.9547 19.8138 20.1783C18.5902 21.402 16.931 22.0901 15.2005 22.0918V22.0918ZM6.52669 2.40181C5.33814 2.40342 4.19875 2.87628 3.35832 3.71672C2.51788 4.55715 2.04501 5.69656 2.0434 6.88512V15.565C2.04501 16.7536 2.51788 17.893 3.35832 18.7334C4.19875 19.5739 5.33814 20.0467 6.52669 20.0484H15.2005C16.3891 20.0467 17.5285 19.5739 18.3689 18.7334C19.2093 17.893 19.6822 16.7536 19.6838 15.565V6.88512C19.6822 5.69656 19.2093 4.55715 18.3689 3.71672C17.5285 2.87628 16.3891 2.40342 15.2005 2.40181H6.52669Z" fill="#FEF9F3"/>
</svg>
