<svg width="23" height="23" viewBox="0 0 23 23" fill="none" xmlns="http://www.w3.org/2000/svg">
<path d="M5.16157 22.0913V7.42724H0.287462V22.0913H5.16157ZM2.7255 5.4253C4.42477 5.4253 5.48289 4.29948 5.48289 2.89209C5.451 1.45331 4.42477 0.358398 2.75787 0.358398C1.09098 0.358398 0 1.45331 0 2.89209C0 4.29948 1.05763 5.4253 2.69362 5.4253H2.7255V5.4253ZM7.85911 22.0913H12.7327V13.903C12.7327 13.4654 12.7651 13.0269 12.8936 12.7139C13.2459 11.8378 14.0479 10.9312 15.3954 10.9312C17.1585 10.9312 17.8644 12.2758 17.8644 14.2474V22.0913H22.738V13.6832C22.738 9.17948 20.3343 7.08336 17.1271 7.08336C14.4982 7.08336 13.3435 8.55501 12.7018 9.55377H12.7342V7.42773H7.86059C7.92436 8.80127 7.86059 22.0918 7.86059 22.0918L7.85911 22.0913Z" fill="#FEF9F3"/>
</svg>
