<svg width="22" height="24" viewBox="0 0 22 24" fill="none" xmlns="http://www.w3.org/2000/svg">
<path d="M7.34298 21.0927C3.87595 20.2132 -0.0729068 16.1968 0.00102251 10.7681C0.0825996 4.68166 4.81534 0.479177 9.71507 0.0470727C12.6773 -0.207856 15.3376 0.57094 17.6587 2.42554C19.9798 4.28015 21.3487 6.67776 21.6648 9.63366C22.3315 15.8437 18.0053 20.2132 14.2617 21.1743C14.3267 20.7332 14.3777 20.2935 14.4644 19.8627C14.4835 19.7696 14.6225 19.6778 14.7257 19.6268C16.2553 18.8812 17.5707 17.8742 18.5649 16.4772C19.1801 15.6509 19.6337 14.716 19.902 13.7214C20.12 12.8445 20.3201 11.9446 20.3673 11.0447C20.4093 9.87751 20.2088 8.71436 19.7784 7.62864C19.3895 6.57286 18.8182 5.5935 18.0907 4.73518C16.8416 3.27572 15.3184 2.2369 13.4447 1.73215C11.8874 1.29455 10.2438 1.26384 8.67114 1.64293C5.54827 2.40771 3.33422 4.298 2.07487 7.27046C1.50656 8.56507 1.25407 9.97621 1.33815 11.3876C1.4396 13.0549 1.9714 14.6675 2.88173 16.068C3.81999 17.5299 5.14672 18.7017 6.71331 19.4522C6.82657 19.4974 6.92604 19.5713 7.00185 19.6668C7.07765 19.7623 7.12717 19.876 7.14543 19.9965C7.20407 20.3585 7.27415 20.7167 7.34298 21.0927Z" fill="#FEF9F3"/>
<path d="M14.7111 16.8509C14.7111 16.3067 14.6984 15.7981 14.7213 15.292C14.7213 15.1773 14.8488 15.055 14.9355 14.9594C15.7181 14.1347 16.2777 13.1876 16.4842 12.0608C16.7391 10.6587 16.4778 9.31908 15.8086 8.06993C15.0273 6.60919 13.7692 5.79723 12.1886 5.34601C9.067 4.45376 5.82306 6.68186 5.16917 9.60589C4.72049 11.6134 5.21763 13.4005 6.59424 14.9301C6.79181 15.1493 6.90525 15.3545 6.87848 15.6592C6.85172 15.9638 6.89121 16.2506 6.89504 16.5514C6.89504 16.6508 6.87972 16.7515 6.86952 16.865C4.84029 15.8911 3.35793 12.9493 3.60138 10.4573C3.99652 6.43074 7.25829 3.89293 10.5341 3.85979C14.0547 3.82282 17.0858 6.28161 17.7474 9.56254C18.4089 12.8435 16.5186 15.9676 14.7111 16.8509Z" fill="#FEF9F3"/>
<path d="M13.4276 17.1522C13.2887 18.2993 13.2046 19.4669 12.993 20.6051C12.812 21.5777 12.5532 22.5605 11.856 23.3201C11.5908 23.6163 11.258 23.8441 10.886 23.9842C10.6858 24.0531 10.3456 23.8733 10.1327 23.7178C9.58714 23.3214 9.2481 22.7504 9.02503 22.1245C8.55545 20.787 8.29988 19.3838 8.26784 17.9666C8.24872 17.2898 8.22578 16.6117 8.26784 15.9374C8.33157 14.8986 8.94213 14.2103 9.8637 13.833C10.2601 13.6602 10.6961 13.5987 11.1248 13.6551C11.5535 13.7114 11.9588 13.8836 12.297 14.1529C12.6176 14.3806 12.8797 14.681 13.0618 15.0295C13.2439 15.378 13.3409 15.7647 13.3448 16.1579C13.355 16.4855 13.3448 16.8144 13.3448 17.1419L13.4276 17.1522Z" fill="#FEF9F3"/>
<path d="M10.861 7.53591C12.2376 7.53591 13.3987 8.72513 13.3987 10.1349C13.3988 10.6519 13.2449 11.1571 12.9565 11.5862C12.668 12.0152 12.2582 12.3485 11.7795 12.5435C11.3007 12.7386 10.7747 12.7865 10.2686 12.6811C9.76246 12.5758 9.29922 12.3219 8.93805 11.9521C8.57688 11.5822 8.33419 11.113 8.24092 10.6045C8.14765 10.0961 8.20805 9.57133 8.41444 9.09734C8.62082 8.62336 8.96377 8.22163 9.39955 7.94351C9.83532 7.66538 10.3441 7.52349 10.861 7.53591V7.53591Z" fill="#FEF9F3"/>
</svg>
