<svg width="23" height="21" viewBox="0 0 23 21" fill="none" xmlns="http://www.w3.org/2000/svg">
<g clip-path="url(#clip0_102_1702)">
<path d="M21.4143 8.01768C20.5112 7.54511 19.6314 7.66955 18.8271 8.28625C18.6769 8.40164 18.5972 8.39298 18.4547 8.29768C16.7952 7.17689 14.9621 6.5783 12.9922 6.39597L12.2404 6.32705C12.6098 4.55057 12.9718 2.80757 13.3355 1.05827C14.495 1.31267 15.6284 1.55919 16.7595 1.81596C16.7973 1.83007 16.8312 1.85327 16.8585 1.88362C16.8858 1.91397 16.9056 1.95059 16.9162 1.99042C17.0312 2.94304 17.9186 3.63418 18.8436 3.50068C19.8399 3.35772 20.5273 2.35863 20.2958 1.36898C20.133 0.670758 19.5896 0.12927 18.9478 0.0260918C18.2022 -0.0940202 17.5389 0.20449 17.1576 0.840493C17.0998 0.93737 17.0546 0.971627 16.9335 0.944454C15.6767 0.665637 14.4172 0.397061 13.1588 0.124938C12.8381 0.0552341 12.6561 0.167077 12.5868 0.499452C12.2802 1.95681 11.9771 3.41496 11.6775 4.87389C11.5753 5.36537 11.4731 5.85684 11.3709 6.34832C9.01213 6.46016 6.81501 7.05324 4.85431 8.44496C4.12628 7.78927 3.50324 7.70026 2.8461 7.79163C1.79812 7.93734 0.972763 8.77182 0.8034 9.80006C0.624841 10.8815 1.10496 11.8971 2.05101 12.422C2.15294 12.4784 2.18283 12.5347 2.16827 12.6489C2.03186 13.7319 2.24298 14.7495 2.75835 15.6962C3.60632 17.2541 4.92252 18.2768 6.47016 18.9975C8.54121 19.9619 10.7211 20.2837 12.9841 20.0722C14.3927 19.9403 15.7468 19.6059 17.0343 19.0002C18.2876 18.4095 19.3954 17.6219 20.2422 16.4866C21.089 15.3512 21.512 14.0922 21.3408 12.6532C21.3243 12.5154 21.3791 12.4595 21.486 12.398C22.3125 11.9152 22.7359 11.1682 22.7317 10.2049C22.7275 9.21919 22.2707 8.46387 21.4143 8.01768ZM6.2529 11.9861C6.2506 11.0185 7.02116 10.2329 7.97373 10.2313C8.90139 10.2313 9.65433 11.0256 9.65203 12.0034C9.64935 12.969 8.89756 13.7204 7.9335 13.7204C7.71195 13.7214 7.4924 13.6772 7.28761 13.5903C7.08282 13.5034 6.89686 13.3756 6.74052 13.2143C6.58418 13.0529 6.46057 12.8613 6.37686 12.6504C6.29316 12.4396 6.25102 12.2138 6.2529 11.9861ZM15.7491 16.7047C15.2697 17.1604 14.6927 17.4289 14.0746 17.6105C13.3163 17.8354 12.5389 17.9181 11.6905 17.9314C10.7709 17.9074 9.80913 17.7869 8.88913 17.414C8.46578 17.2452 8.07615 16.998 7.73961 16.6846C7.52887 16.4877 7.49706 16.2337 7.65531 16.0412C7.81357 15.8486 8.09596 15.819 8.3025 16.0081C8.96769 16.6165 9.78499 16.8221 10.6299 16.9532C11.5849 17.0989 12.5581 17.0588 13.4987 16.8351C14.1118 16.6917 14.698 16.4807 15.1747 16.0301C15.3832 15.8332 15.6659 15.8356 15.8227 16.0195C15.9897 16.2156 15.9598 16.5043 15.7491 16.7047ZM15.6142 13.7472C14.618 13.7961 13.8428 13.0482 13.8087 12.0089C13.7788 11.1114 14.526 10.2974 15.4115 10.2636C16.4143 10.2242 17.163 10.9437 17.2048 11.9853C17.2404 12.8765 16.4932 13.7043 15.6142 13.7472Z" fill="black"/>
</g>
<defs>
<clipPath id="clip0_102_1702">
<rect width="21.9643" height="20.1339" fill="white" transform="translate(0.767578)"/>
</clipPath>
</defs>
</svg>
