<svg width="22" height="22" viewBox="0 0 22 22" fill="none" xmlns="http://www.w3.org/2000/svg">
<g clip-path="url(#clip0_201_1449)">
<path d="M16.6384 16.2438C15.7435 16.2438 14.8485 16.2552 13.9536 16.2438C12.4893 16.221 11.4333 15.2536 11.4316 13.9381C11.43 12.6227 12.4795 11.6454 13.9504 11.6341C15.7402 11.621 17.53 11.6178 19.3198 11.6341C20.8314 11.6503 21.8255 12.5788 21.8255 13.9316C21.8255 15.2845 20.8314 16.208 19.3231 16.2406C18.4282 16.2568 17.5333 16.2422 16.6384 16.2438Z" fill="#FEF9F3"/>
<path d="M10.2982 16.5157C10.2982 17.4637 10.3096 18.4117 10.2982 19.3596C10.2987 19.9474 10.0717 20.5126 9.66468 20.9369C9.25769 21.3612 8.70225 21.6117 8.1146 21.6361C6.97564 21.6897 5.81877 20.7596 5.77646 19.5922C5.70162 17.5092 5.67884 15.4214 5.75043 13.3385C5.79436 12.0605 6.97238 11.1466 8.19108 11.2377C9.40978 11.3288 10.2965 12.3044 10.3063 13.584C10.3063 14.5596 10.3063 15.5353 10.3063 16.5109L10.2982 16.5157Z" fill="#FEF9F3"/>
<path d="M5.4504 5.79395H8.28968C9.6239 5.79395 10.6408 6.76142 10.6555 8.05736C10.6605 8.36317 10.6043 8.6669 10.4903 8.95074C10.3763 9.23457 10.2067 9.4928 9.99148 9.71028C9.77628 9.92776 9.5198 10.1001 9.23707 10.2172C8.95434 10.3343 8.65105 10.3939 8.345 10.3923C6.42394 10.4021 4.50125 10.3896 2.57694 10.3549C1.19879 10.3305 0.284358 9.36955 0.299001 8.02972C0.318527 6.73866 1.2476 5.84273 2.59484 5.82809C3.54344 5.81834 4.49203 5.82809 5.439 5.82809L5.4504 5.79395Z" fill="#FEF9F3"/>
<path d="M11.5317 5.31537C11.5317 4.3674 11.5219 3.41944 11.5317 2.47147C11.548 1.14952 12.4038 0.217809 13.6469 0.156021C14.9486 0.0893542 16.042 0.934883 16.0876 2.22919C16.164 4.28448 16.164 6.34626 16.0876 8.40805C16.0371 9.70887 14.9486 10.5414 13.6469 10.4796C12.4119 10.4194 11.5528 9.4861 11.5317 8.16578C11.5235 7.20968 11.5317 6.26334 11.5317 5.31537Z" fill="#FEF9F3"/>
<path d="M17.3105 10.2801C17.3512 9.39558 17.335 8.53054 17.444 7.67851C17.5904 6.53217 18.7635 5.64111 19.87 5.7468C20.4418 5.7878 20.9776 6.04145 21.3716 6.45772C21.7655 6.874 21.9891 7.42269 21.9982 7.99558C22.0243 9.23135 21.227 10.1923 19.9953 10.3143C19.2745 10.3842 18.5406 10.3533 17.8133 10.3566C17.644 10.3444 17.4759 10.3188 17.3105 10.2801Z" fill="#FEF9F3"/>
<path d="M11.5671 17.4142C12.3937 17.4142 13.1177 17.4029 13.845 17.4142C15.2004 17.4403 16.1653 18.3898 16.1783 19.6907C16.2013 20.2761 15.9919 20.8469 15.5957 21.2787C15.1995 21.7106 14.6487 21.9685 14.0631 21.9963C12.724 22.0663 11.6712 21.1492 11.5834 19.7785C11.528 19.0305 11.5671 18.276 11.5671 17.4142Z" fill="#FEF9F3"/>
<path d="M4.577 11.5725C4.577 12.3709 4.577 13.0685 4.577 13.766C4.5591 15.1774 3.6105 16.1644 2.28279 16.1644C1.69596 16.1746 1.12855 15.9542 0.702581 15.5507C0.276606 15.1473 0.0260752 14.5928 0.00485199 14.0067C-0.0455881 12.6766 0.901383 11.649 2.28279 11.579C3.00848 11.5416 3.73416 11.5725 4.577 11.5725Z" fill="#FEF9F3"/>
<path d="M10.2919 4.57705C9.36769 4.57705 8.52974 4.63558 7.70317 4.56241C6.51539 4.45835 5.62211 3.30876 5.70672 2.11201C5.75292 1.54075 6.01094 1.00733 6.43022 0.616305C6.8495 0.225278 7.39981 0.00483582 7.97327 -0.0018133C9.22776 -0.0148214 10.2235 0.881114 10.2837 2.12502C10.3228 2.90713 10.2919 3.69087 10.2919 4.57705Z" fill="#FEF9F3"/>
</g>
<defs>
<clipPath id="clip0_201_1449">
<rect width="22" height="22" fill="white"/>
</clipPath>
</defs>
</svg>
