<svg width="22" height="23" viewBox="0 0 22 23" fill="none" xmlns="http://www.w3.org/2000/svg">
<path d="M10.8641 0.358399C8.71481 0.358912 6.61395 0.996766 4.82719 2.1913C3.04043 3.38583 1.64803 5.08338 0.826064 7.06928C0.00410373 9.05517 -0.210495 11.2402 0.209407 13.3481C0.629308 15.4559 1.66485 17.392 3.18508 18.9113C4.7053 20.4306 6.64193 21.465 8.75004 21.8836C10.8582 22.3023 13.0431 22.0864 15.0285 21.2632C17.0139 20.4401 18.7106 19.0466 19.9041 17.2592C21.0975 15.4717 21.7341 13.3705 21.7334 11.2212C21.7323 8.33939 20.5866 5.57601 18.5483 3.53888C16.5099 1.50175 13.7459 0.35771 10.8641 0.358399V0.358399ZM15.8465 16.0311C15.8002 16.1071 15.7394 16.1733 15.6675 16.2258C15.5956 16.2783 15.5141 16.3161 15.4275 16.3371C15.341 16.3581 15.2512 16.3618 15.1632 16.348C15.0753 16.3342 14.9909 16.3032 14.9149 16.2568C12.364 14.6998 9.15267 14.3443 5.37041 15.2084C5.28253 15.2319 5.19082 15.2374 5.10077 15.2246C5.01071 15.2118 4.92415 15.181 4.84626 15.134C4.76836 15.0871 4.70072 15.0249 4.64737 14.9512C4.59403 14.8776 4.55606 14.7939 4.53575 14.7053C4.51544 14.6166 4.51319 14.5247 4.52915 14.4352C4.5451 14.3457 4.57893 14.2602 4.62861 14.184C4.67829 14.1079 4.74281 14.0425 4.81832 13.9917C4.89382 13.941 4.97877 13.906 5.06809 13.8889C9.20716 12.9417 12.7585 13.3491 15.6221 15.0995C15.6983 15.1455 15.7647 15.2062 15.8175 15.278C15.8703 15.3498 15.9084 15.4313 15.9296 15.5179C15.9508 15.6044 15.9547 15.6943 15.9411 15.7824C15.9276 15.8704 15.8967 15.9549 15.8504 16.0311H15.8465ZM17.1765 13.0727C17.1182 13.1678 17.0417 13.2504 16.9514 13.3158C16.8612 13.3813 16.7589 13.4283 16.6504 13.4542C16.542 13.4801 16.4295 13.4844 16.3194 13.4668C16.2093 13.4492 16.1037 13.4101 16.0087 13.3517C13.088 11.5559 8.63626 11.0369 5.18098 12.0853C5.07448 12.1176 4.96267 12.1286 4.85192 12.1177C4.74118 12.1068 4.63367 12.0741 4.53554 12.0217C4.33734 11.9157 4.18936 11.7353 4.12415 11.5203C4.05894 11.3052 4.08184 11.073 4.18781 10.8748C4.29378 10.6766 4.47414 10.5286 4.68922 10.4634C8.63496 9.26713 13.5409 9.84712 16.8949 11.9076C17.0872 12.0243 17.2253 12.2126 17.2788 12.4311C17.3324 12.6495 17.297 12.8803 17.1804 13.0727H17.1765ZM17.2907 9.99114C13.7874 7.91512 8.01085 7.72049 4.66716 8.73515C4.40907 8.81326 4.13052 8.78565 3.89278 8.65839C3.65505 8.53113 3.47761 8.31464 3.39949 8.05655C3.32137 7.79846 3.34898 7.5199 3.47625 7.28217C3.60351 7.04443 3.82 6.86699 4.07809 6.78888C7.91614 5.62111 14.296 5.84818 18.3287 8.24209C18.4434 8.31025 18.5437 8.40034 18.6236 8.50723C18.7035 8.61411 18.7616 8.7357 18.7946 8.86504C18.8275 8.99438 18.8347 9.12894 18.8156 9.26105C18.7966 9.39315 18.7517 9.52021 18.6836 9.63497C18.6154 9.74973 18.5253 9.84994 18.4184 9.92988C18.3115 10.0098 18.1899 10.0679 18.0606 10.1009C17.9313 10.1338 17.7967 10.141 17.6646 10.1219C17.5325 10.1029 17.4054 10.058 17.2907 9.98984V9.99114Z" fill="#FEF9F3"/>
</svg>
