<svg width="20" height="23" viewBox="0 0 20 23" fill="none" xmlns="http://www.w3.org/2000/svg">
<path d="M0.883426 22.0918C0.872792 22.0756 0.865986 22.0531 0.850675 22.0437C0.2331 21.6694 -0.00253148 21.111 2.04848e-05 20.4019C0.00739282 14.2622 0.00809339 8.12261 0.00213881 1.98316C0.00213881 1.2601 0.286699 0.717374 0.944255 0.358398L12.0793 11.2787C11.9942 11.3212 11.9036 11.3442 11.8454 11.4012C8.26838 14.9053 4.69307 18.4114 1.11947 21.9195C1.06503 21.9727 1.01825 22.0343 0.96764 22.0918H0.883426Z" fill="#FEF9F3"/>
<path d="M12.9867 12.1201L15.4817 14.7406L3.5836 21.4573L3.55469 21.4207L12.9867 12.1201Z" fill="#FEF9F3"/>
<path d="M12.9823 10.3294L3.58984 1.06577L3.6243 1.01855L15.4735 7.70725L12.9823 10.3294Z" fill="#FEF9F3"/>
<path d="M13.9307 11.2188C14.7949 10.3843 15.6443 9.56469 16.4937 8.74551C16.7578 8.49031 16.7587 8.4903 17.0798 8.6732C17.7795 9.07088 18.4834 9.46516 19.1783 9.86794C19.7083 10.175 19.9261 10.671 19.9231 11.2545C19.9201 11.8381 19.707 12.3268 19.1622 12.6262C18.4136 13.0379 17.6693 13.4573 16.9241 13.8754C16.8276 13.9294 16.757 13.9711 16.6498 13.8664C15.7698 13.0069 14.8825 12.1549 13.9979 11.3004C13.974 11.2744 13.9516 11.2472 13.9307 11.2188V11.2188Z" fill="#FEF9F3"/>
</svg>
