<svg width="11" height="21" viewBox="0 0 11 21" fill="none" xmlns="http://www.w3.org/2000/svg">
<g clip-path="url(#clip0_102_1704)">
<path d="M3.87761 0.916016H6.88404V4.98912H10.9976V9.07239H6.93033C6.91591 9.14178 6.9062 9.21205 6.90126 9.28274C6.90126 11.0318 6.90126 12.7808 6.90126 14.5299C6.90126 14.5924 6.90126 14.6543 6.90665 14.7162C6.94271 15.5096 7.29254 15.8694 8.0907 15.8908C8.9583 15.9111 9.82643 15.9052 10.6946 15.91H11.0003V20.0141C10.4082 20.0477 9.81889 20.0851 9.23171 20.1134C8.10147 20.1668 6.98146 20.155 5.88782 19.7931C4.02346 19.1748 2.80657 17.587 2.78343 15.6335C2.75921 13.5737 2.7759 11.5134 2.77428 9.45358V9.10121H0.0493324C0.0364102 9.02378 0.0276073 8.94572 0.0229602 8.86736C0.0229602 7.74618 0.0267277 6.6298 0.0175781 5.51128C0.0175781 5.3148 0.0837777 5.25447 0.271612 5.23258C2.13489 5.01902 3.24683 3.99287 3.63703 2.13864C3.72045 1.73768 3.79472 1.33726 3.87761 0.916016Z" fill="black"/>
</g>
<defs>
<clipPath id="clip0_102_1704">
<rect width="10.9821" height="19.2188" fill="white" transform="translate(0.0175781 0.916016)"/>
</clipPath>
</defs>
</svg>
