<svg width="23" height="21" viewBox="0 0 23 21" fill="none" xmlns="http://www.w3.org/2000/svg">
<path fill-rule="evenodd" clip-rule="evenodd" d="M0 17.954C2.07718 19.3313 4.54475 20.1348 7.19511 20.1348C15.91 20.1348 20.8339 12.5266 20.5383 5.70204C21.4544 5.01866 22.251 4.16384 22.8795 3.19008C22.0378 3.57609 21.1329 3.83731 20.184 3.95393C21.1532 3.35451 21.8967 2.40407 22.2476 1.26937C21.3405 1.82564 20.3352 2.23031 19.2678 2.44722C18.4103 1.50494 17.1906 0.916016 15.8401 0.916016C12.8106 0.916016 10.5834 3.83731 11.2682 6.8729C7.36661 6.67114 3.90727 4.73877 1.59315 1.80348C0.363309 3.98425 0.954533 6.83791 3.04525 8.28165C2.27576 8.25599 1.5514 8.03675 0.918428 7.67407C0.867655 9.92247 2.42582 12.0239 4.68353 12.4927C4.02235 12.6793 3.29912 12.7213 2.5646 12.5755C3.16034 14.5044 4.89452 15.9062 6.94914 15.9458C4.97576 17.5447 2.49014 18.2584 0 17.954Z" fill="black"/>
</svg>
