<svg xmlns="http://www.w3.org/2000/svg" width="69.9209" height="17.6594" viewBox="0 0 69.9209 17.6594">
  <defs>
    <style>
      .cls-1 {
        fill: none;
        stroke: #96f;
        stroke-linecap: round;
        stroke-linejoin: round;
        stroke-width: 3px;
      }
    </style>
  </defs>
  <g id="Capa_2" data-name="Capa 2">
    <g id="Capa_1-2" data-name="Capa 1">
      <path class="cls-1" d="M68.4209,12.3784C68.1855,9.2305,67.42,6.572,64.9418,4.4278A11.1063,11.1063,0,0,0,49.0071,6.08a10.1563,10.1563,0,0,0-2.1456,6.9517c.1811,2.0024,1.8077,3.9253,3.948,2.7884a4.7437,4.7437,0,0,0,1.7989-1.8912,8.19,8.19,0,0,0,.5084-7.2713C51.7765,3.8363,48.41,2.49,45.5322,1.9151a21.4953,21.4953,0,0,0-6.45-.2562,18.6991,18.6991,0,0,0-9.9727,3.8224A9.3078,9.3078,0,0,0,26.6,8.7845c-.31.6982-1.506,4.0421.3259,3.6721a1.7331,1.7331,0,0,0,.9739-.7252C29.78,9.24,29.2852,6.3688,26.76,4.465c-2.9879-2.2526-7.0865-2.9967-10.7413-2.964C6.7946,1.5838,1.5,7.8528,1.5,11.7593"/>
    </g>
  </g>
</svg>
