<svg xmlns="http://www.w3.org/2000/svg" width="150.916" height="27.2929" viewBox="0 0 150.916 27.2929">
  <defs>
    <style>
      .cls-1 {
        fill: #409075;
      }
    </style>
  </defs>
  <g id="Capa_2" data-name="Capa 2">
    <g id="Capa_1-2" data-name="Capa 1">
      <path class="cls-1" d="M2.099,25.4762c8.2636-6.0853,16.8875-11.9811,25.6356-17.3495l-3.1262-.82c1.5472,2.1721-9.3208,13.7206-11.0921,16.04-1.6239,2.1259,1.4964,4.9457,3.593,3.593Q32.78,16.8292,48.3322,6.5409L44.8764,6.095c.36.3145-9.1836,12.6514-10.246,14.0829-2.098,2.827,2.1941,5.37,4.52,3.4874A100.6192,100.6192,0,0,1,62.2235,9.7317L57.9546,6.45a24.3942,24.3942,0,0,1-7.5689,10.072c-2.5337,2.0712.8154,6.4512,3.5206,4.5628,3.5749-2.4955,7.2-4.9125,10.9124-7.2,3.0652-1.8887,8.686-6.7637,12.34-5.55L75.4239,4.07,67.6385,14.9462c-1.69,2.3609,1.626,5.5411,3.9714,3.9715A94.2434,94.2434,0,0,1,101.4934,5.6714L97.9252,2.1031a29.93,29.93,0,0,1-8.9363,12.1994c-2.71,2.2692.7449,5.8155,3.514,4.5544L117.0887,7.66l-3.9654-3.9653-5.8068,11.1916c-1.27,2.4468,1.3882,5.5946,3.9644,3.9643a86.5752,86.5752,0,0,1,20.59-9.5647l-3.5626-3.5626-2.2238,7.14c-.6064,1.9472,1.4912,4.3992,3.5621,3.562q9.527-3.851,19.2693-7.0989c3.5168-1.1726,2.01-6.765-1.5389-5.5823q-9.7486,3.249-19.27,7.0967l3.5621,3.5621,2.2246-7.1395A2.9186,2.9186,0,0,0,130.3315,3.7,92.49,92.49,0,0,0,108.356,13.8467L112.32,17.811,118.1284,6.62a2.9242,2.9242,0,0,0-3.9653-3.9654L89.5758,13.8491l3.514,4.5543a35.6107,35.6107,0,0,0,10.43-14.758c.8443-2.1632-1.612-4.0549-3.5683-3.5683A98.9372,98.9372,0,0,0,68.68,13.9049l3.9715,3.9714L80.438,7.0008c1.1541-1.6118-.1092-3.7249-1.7352-4.2652-4.435-1.4735-8.2649,1.0808-12.0079,3.2554-5.3869,3.13-10.6131,6.5118-15.7212,10.0767l3.5206,4.5628A30.1126,30.1126,0,0,0,63.559,7.995c1.055-2.65-2.2519-4.1654-4.2689-3.2818A104.9971,104.9971,0,0,0,35.08,19.5955l4.52,3.4873c3.2582-4.4127,7.6127-8.9477,10.1025-13.849,1.2584-2.4771,1.4142-5.253-.7934-7.1717a2.9244,2.9244,0,0,0-3.4558-.4459q-15.5482,10.32-30.9951,20.7882l3.5931,3.5931c3.2795-4.5086,6.9724-8.9561,9.8945-13.7061,1.4272-2.32,2.4114-4.91.6083-7.2909a2.3311,2.3311,0,0,0-3.1262-.82C16.5923,9.9675,8.57,16.63.4232,23.3044c-1.2014.9843.4086,3.1049,1.6758,2.1718Z"/>
    </g>
  </g>
</svg>
