<svg xmlns="http://www.w3.org/2000/svg" width="170.3043" height="69.1502" viewBox="0 0 170.3043 69.1502">
  <defs>
    <style>
      .cls-1 {
        fill: none;
        stroke: #96f;
        stroke-linecap: round;
        stroke-linejoin: round;
        stroke-width: 3px;
      }
    </style>
  </defs>
  <g id="Capa_2" data-name="Capa 2">
    <g id="Capa_1-2" data-name="Capa 1">
      <path class="cls-1" d="M161.3443,3.1949c-8.4976-4.9061-21.5127,1.1884-31.3677,13.8222-.5318-6.29-2.98-11.3-7.3488-13.8222C114.13-1.7112,101.1151,4.3833,91.26,17.0171c-.5318-6.29-2.98-11.3-7.3487-13.8222C75.4137-1.7112,62.3985,4.3833,52.5435,17.0171c-.5319-6.29-2.98-11.3-7.3487-13.8222C35.2236-2.5619,19.029,6.8206,9.023,24.1516S-1.0112,60.1985,8.96,65.9554c8.4976,4.9059,21.5127-1.1886,31.3677-13.8223.532,6.2905,2.98,11.3,7.3488,13.8223,8.4977,4.9059,21.5128-1.1886,31.3677-13.8223.532,6.2905,2.98,11.3,7.3489,13.8223,8.4976,4.9059,21.5127-1.1886,31.3677-13.8223.5319,6.2905,2.98,11.3,7.3488,13.8223,9.9712,5.7567,26.1658-3.6258,36.1717-20.9565S171.3155,8.9518,161.3443,3.1949Z"/>
    </g>
  </g>
</svg>
