<svg xmlns="http://www.w3.org/2000/svg" width="210.481" height="55.6148" viewBox="0 0 210.481 55.6148">
  <defs>
    <style>
      .cls-1 {
        fill: none;
        stroke: #f36a24;
        stroke-miterlimit: 10;
        stroke-width: 3px;
      }
    </style>
  </defs>
  <g id="Capa_2" data-name="Capa 2">
    <g id="Capa_1-2" data-name="Capa 1">
      <path class="cls-1" d="M182.6736,1.5a26.2342,26.2342,0,0,0-19.3583,8.4982,26.2974,26.2974,0,0,0-38.7165,0,26.2975,26.2975,0,0,0-38.7166,0,26.2974,26.2974,0,0,0-38.7165,0,26.3076,26.3076,0,1,0,0,35.618,26.2966,26.2966,0,0,0,38.7165,0,26.2967,26.2967,0,0,0,38.7166,0,26.2966,26.2966,0,0,0,38.7165,0A26.306,26.306,0,1,0,182.6736,1.5Z"/>
    </g>
  </g>
</svg>
