<svg width="1440" height="860" viewBox="0 0 1440 860" fill="none" xmlns="http://www.w3.org/2000/svg">
<g clip-path="url(#asdasdas)">
<path d="M0 134H12L32 146V162H84L98 182L118 202H130L180 234H226V252L280 272L360 286L406 318L478 334L518 382L568 416H596L632 440L654 458L674 498L724 558H926L946 574L970 596C970 598 972.8 604.4 984 614C995.2 623.6 1012.67 632.667 1020 636H1036C1042.67 640.667 1058.4 651.2 1068 656C1077.6 660.8 1105.33 675.333 1118 682L1160 702H1208C1216 702 1234 710 1242 714C1254 722 1280.8 738.4 1292 740C1303.2 741.6 1327.33 740.667 1338 740H1416L1440 758.5M1117 681L1165 646H1193C1214.67 628.667 1263.8 593.4 1287 591C1316 588 1329 576 1334 573C1338 570.6 1367 553.333 1381 545L1440 539.5" stroke="#9D0801"/>
</g>
<defs>
<clipPath id="asdasdas">
<rect width="1440" height="860" fill="white"/>
</clipPath>
</defs>
</svg>
