<svg width="398" height="152" viewBox="0 0 398 152" fill="none" xmlns="http://www.w3.org/2000/svg">
<path d="M71.4084 0H58.7217V69.6516H71.4084V0Z" fill="white"/>
<path d="M89.1694 0V69.6516H101.856V22.8544L125.78 69.6516H135.929V0H123.242V45.3461L103.669 0H89.1694Z" fill="white"/>
<path d="M144.628 0V11.2458H161.302V69.6516H176.163V11.2458H193.925V0H144.628Z" fill="white"/>
<path d="M202.987 0V69.6516H247.21V56.9547H220.749V39.179H239.597V27.9332H220.749V11.2458H247.21V0H202.987Z" fill="white"/>
<path d="M292.881 38.0907C292.881 38.0907 305.931 32.6492 304.843 18.5012C303.756 4.35322 293.969 0.725537 287.807 0.362769C281.645 0 260.983 0 260.983 0V69.6516H273.67V40.9928C273.67 40.9928 274.033 39.179 275.482 39.179C276.932 39.179 279.47 39.179 279.47 39.179L291.794 69.6516H306.656L292.881 38.0907ZM284.544 29.0215C279.832 30.8353 274.033 29.747 274.033 29.747V9.79475C274.033 9.79475 280.195 9.06921 284.907 10.5203C287.807 11.9714 289.982 14.8735 289.982 20.315C289.982 25.3938 287.807 27.9332 284.544 29.0215Z" fill="white"/>
<path d="M0 0V34.8258H21.7486V28.2959H7.61202V20.6778H15.5865V14.148H7.61202V6.52983H21.7486V0H0Z" fill="white"/>
<path d="M28.998 0V34.8258H48.2093V28.2959H35.1602V0H28.998Z" fill="white"/>
<path d="M62.3455 133.136C63.433 138.215 68.1452 147.284 73.5823 149.461C79.0195 151.637 86.269 153.451 99.3182 148.735C111.28 144.019 109.468 126.606 109.468 126.606L96.7809 126.243C96.7809 126.243 98.5933 138.94 85.9065 138.94C73.9448 139.303 75.7572 124.43 75.7572 116.811C75.7572 113.547 75.3947 107.742 75.7572 105.203H61.6206L61.2581 105.566C60.5331 113.909 60.5331 124.43 62.3455 133.136Z" fill="white"/>
<path d="M248.659 105.203H234.885V150.549H248.659V105.203Z" fill="white"/>
<path d="M191.388 150.549L192.113 105.203H180.876V150.549H191.388Z" fill="white"/>
<path d="M218.574 150.549L232.348 105.203H222.561L215.311 129.146L207.337 105.203H195.375L210.237 150.549H218.574Z" fill="white"/>
<path d="M334.566 105.203H321.879V150.549H334.566V105.203Z" fill="white"/>
<path d="M364.652 150.549C364.652 150.549 376.251 153.088 381.688 150.549C387.125 148.009 399.087 146.921 398 112.095C398 109.193 397.637 106.291 397.275 104.84H382.775C383.138 105.928 383.5 111.37 383.5 116.811C383.5 138.215 377.338 139.666 373.351 139.666C368.276 139.666 362.477 135.675 362.477 116.811C362.477 111.732 362.839 105.928 363.202 104.84H348.34C347.978 105.928 347.615 109.556 347.615 112.821C346.165 148.009 364.652 150.549 364.652 150.549Z" fill="white"/>
<path d="M285.632 150.548C285.632 150.548 306.655 151.999 308.105 134.224C309.555 116.448 297.231 115.36 297.231 115.36C297.231 115.36 304.843 111.007 307.018 104.477H293.606C292.881 105.928 291.431 108.83 288.531 109.556C283.819 111.007 277.657 109.556 277.657 109.556V104.477H262.433V150.186L285.632 150.548ZM289.256 121.164C292.881 122.615 295.056 125.155 295.056 129.871C295.056 134.587 292.519 137.126 288.894 138.214C283.819 140.028 277.657 138.94 277.657 138.94V120.439C277.657 120.439 284.182 119.713 289.256 121.164Z" fill="white"/>
<path d="M126.867 150.549L131.579 132.773H152.966L157.678 150.549H171.452L158.04 105.203H144.629L150.428 124.067H133.754L139.554 105.203H128.317L114.543 150.549H126.867Z" fill="white"/>
<path d="M72.8583 105.202C73.5832 99.0354 75.7581 92.5056 82.6452 92.5056C92.4321 92.5056 92.7945 102.663 92.0696 105.202H105.119C105.119 102.663 105.119 96.1333 102.944 92.1428C99.6816 86.3385 96.0568 81.2598 82.6452 81.2598C69.2335 81.2598 63.7964 87.7896 60.8965 94.6822C59.8091 97.2216 59.0842 101.212 58.7217 105.928L59.0842 105.565L72.8583 105.202Z" fill="white"/>
<path d="M188.85 95.4077L192.112 105.202H204.074L196.824 81.2598H176.888V105.202H188.85V95.4077Z" fill="white"/>
<path d="M231.261 93.5939V105.202H243.585V81.2598H225.824L219.662 105.202H229.086L231.261 93.5939Z" fill="white"/>
<path d="M330.579 81.2598H316.805V105.202H330.579V81.2598Z" fill="white"/>
<path d="M370.089 93.5939C373.714 93.5939 377.701 93.5939 379.151 105.202H393.65C389.663 77.6321 369.364 81.2597 369.364 81.2597C369.364 81.2597 349.79 79.8087 345.44 105.202H360.302C361.752 96.1333 365.377 93.5939 370.089 93.5939Z" fill="white"/>
<path d="M273.671 92.1428C273.671 92.1428 280.195 91.4173 284.907 92.8683C288.17 93.9566 290.345 97.2216 290.345 101.575C290.345 102.3 290.345 104.477 290.345 104.477H304.119C304.481 104.477 304.844 99.3982 304.119 96.8588C301.219 83.7991 289.982 82.3481 289.982 82.3481C289.982 82.3481 285.995 81.6225 280.558 81.2597C275.121 81.2597 259.896 80.897 259.896 80.897V104.477H274.033V92.1428H273.671Z" fill="white"/>
<path d="M139.192 96.1333L141.729 105.202H155.141L148.616 81.2598H131.58L125.417 105.202H136.654L139.192 96.1333Z" fill="white"/>
</svg>
